<svg id="Camada_1" data-name="Camada 1" xmlns="http://www.w3.org/2000/svg" xmlns:xlink="http://www.w3.org/1999/xlink" viewBox="0 0 526.58 316.24"><defs><style>.cls-1{fill:none;}.cls-2{fill:#79c1e1;}.cls-3{fill:#5a9f96;}.cls-4{fill:#f5b3b6;}.cls-11,.cls-5{fill:#542e12;}.cls-5{fill-rule:evenodd;}.cls-6{clip-path:url(#clip-path);}.cls-7{fill:#fccb7a;}.cls-8{fill:#f9b962;}.cls-9{fill:#f3982f;}.cls-10{fill:#e8595c;}</style><clipPath id="clip-path"><path class="cls-1" d="M291.16,116.79a2.66,2.66,0,0,0-.6.26l1.71-.56a7.62,7.62,0,0,0-1.11.3m-87.69,40.48c12.78.86,13.05-19.77,26.45-20.55,6.52-.38,10.58,7.42,14.27,15.23,3.89,8.23,7.37,16.47,12.88,15.11,23.69-5.85,24.86-45.39,33.49-50q-7.05,2.27-14.55,4.42c-47.1,13.49-86.75,2.67-97.19-13.59,0,0,9.94,48.4,24.65,49.39M358.38,84.22c-10.87,10.21-34.82,22-66.11,32.27,8.36-1.66,15.28,9.83,21.63,21.31s12.14,22.93,18.27,21.33C346,155.51,360.6,92.54,364,76.83a23.26,23.26,0,0,1-5.66,7.39M364,76.83a10.77,10.77,0,0,0,.54-1.6l.21-1.93s-.26,1.28-.75,3.53"/></clipPath></defs><path class="cls-2" d="M390.74,118.28a6.34,6.34,0,1,1-6.34-6.34,6.34,6.34,0,0,1,6.34,6.34"/><path class="cls-2" d="M146.89,84a4.65,4.65,0,1,1-4.65-4.65A4.65,4.65,0,0,1,146.89,84"/><path class="cls-3" d="M361.66,63.86c.19,1.38-.28,3.37-1.9,6.24a113.09,113.09,0,0,0-6,12.51c-27.51,16.32-54.09,27.75-78.52,32,5.51-13.46-.21-27.38-6.68-37.71h0c-2.91-3.13-4.19-6.58-3.46-10,1.07-4.92,7-9.51,14.8-12.76a73.49,73.49,0,0,1,25.93-5.34c8.95-.2,17.27,1.63,22.06,4.53,5.2,3.13,6.51,7.65-.58,12.11-3.61,2.28-9.2,3.42-15.33,3.9C303.53,70,295.2,68,295,64.2c-.14-3,7.61-6.43,10.85-4.71l.38.19c-.95,1.54-.95,2.55,0,3,7.41,3.18,15-3.35,7.57-6.17-5.4-2-13.59-1.8-20.52-.14-7.13,1.71-13.5,5-14.26,9.29-.71,4,3.59,8.35,12.52,10.61,9.44,2.39,23.25,2.27,38.55-2.86,10.17-3.41,16.59-8.6,16.16-14.29-.39-5.07-6.19-10.32-18.9-15,11.48.93,21.59,4.33,27.79,9,4,3.06,6.53,6.78,6.47,10.71"/><path class="cls-2" d="M176.94,98.37c2.85,4.44,3.11,5.14,6.43,8.59,10.32,10.73,45,16.88,81.8,11,0,0,.48-18.6,2.13-26.76a9.84,9.84,0,0,0,.71-7.43c-1.53-4.79-7.93-8.77-16-11.26a73.37,73.37,0,0,0-26.33-2.78c-8.93.66-17,3.3-21.51,6.65-4.87,3.62-5.74,8.24,1.76,12,3.81,1.91,9.48,2.51,15.64,2.38,8.46-.17,16.56-3,16.37-6.81-.15-3-8.19-5.66-11.25-3.63l-.37.22c1.1,1.45,1.2,2.45.26,3-7.07,3.89-15.23-1.88-8.14-5.41,5.18-2.56,13.35-3.11,20.41-2.14,7.27,1,13.93,3.69,15.1,7.86,1.1,3.91-2.77,8.66-11.43,11.78-9.15,3.3-22.91,4.52-38.64.91-10.46-2.41-17.35-6.94-17.47-12.66-.11-5.07,5.15-10.86,17.34-16.76-11.34,2.05-21.06,6.43-26.78,11.72-6.41,5.94-8,13.35-.07,19.52"/><path class="cls-4" d="M239,33.31c-7.21.54-13.75,2.67-17.38,5.38-3.94,2.93-4.64,6.66,1.42,9.69,3.08,1.55,7.66,2,12.63,1.93,6.84-.14,13.39-2.41,13.23-5.51-.11-2.4-6.61-4.57-9.09-2.93l-.29.18c.89,1.17,1,2,.2,2.4-5.71,3.14-12.3-1.52-6.58-4.37,4.2-2.08,10.8-2.52,16.5-1.73,5.87.81,11.26,3,12.2,6.35.89,3.16-2.24,7-9.23,9.52-7.4,2.66-18.52,3.65-31.22.73-8.46-1.94-14-5.61-14.12-10.22-.09-4.11,4.16-8.78,14-13.55-9.16,1.66-17,5.19-21.64,9.47-5.23,4.85-6.54,10.91.15,15.93,4.78,3.59,12.08,6.4,21,7.86A85.27,85.27,0,0,0,250.42,64c7.75-1.51,14.3-4.72,18.43-8.49,3.81-3.48,5.47-7.33,4.36-10.83-1.24-3.87-6.42-7.1-12.91-9.1A59.43,59.43,0,0,0,239,33.31"/><path class="cls-5" d="M303.1,15.87c-1,8.32-2.32,18.79-3.53,28.42a64.12,64.12,0,0,0-12.64,1.5c.62-12.33,1.41-27.67,1.65-34.64.28-8.21,4-9.42,7.78-9.36,4.05.07,8.16,2.08,6.74,14.08"/><g class="cls-6"><polygon class="cls-7" points="167.23 42.48 167.23 52.83 177.57 42.48 167.23 42.48"/><polygon class="cls-8" points="167.23 42.48 167.23 49.55 174.29 42.48 167.23 42.48"/><polygon class="cls-9" points="174.09 42.48 172.12 42.48 173.1 43.47 174.09 42.48"/><polygon class="cls-7" points="198.06 42.48 177.37 42.48 187.72 52.83 198.06 42.48"/><polygon class="cls-8" points="194.78 42.48 180.66 42.48 187.72 49.55 194.78 42.48"/><polygon class="cls-9" points="182.63 42.48 180.66 42.48 181.64 43.47 182.63 42.48"/><polygon class="cls-9" points="194.78 42.48 192.81 42.48 193.79 43.47 194.78 42.48"/><polygon class="cls-7" points="218.75 42.48 198.06 42.48 208.41 52.83 218.75 42.48"/><polygon class="cls-8" points="215.47 42.48 201.35 42.48 208.41 49.55 215.47 42.48"/><polygon class="cls-9" points="203.32 42.48 201.35 42.48 202.33 43.47 203.32 42.48"/><polygon class="cls-9" points="215.47 42.48 213.5 42.48 214.48 43.47 215.47 42.48"/><polygon class="cls-7" points="239.44 42.48 218.75 42.48 229.1 52.83 239.44 42.48"/><polygon class="cls-8" points="236.16 42.48 222.04 42.48 229.1 49.55 236.16 42.48"/><polygon class="cls-9" points="224.01 42.48 222.04 42.48 223.02 43.47 224.01 42.48"/><polygon class="cls-9" points="236.16 42.48 234.19 42.48 235.18 43.47 236.16 42.48"/><polygon class="cls-7" points="260.14 42.48 239.44 42.48 249.79 52.83 260.14 42.48"/><polygon class="cls-8" points="256.85 42.48 242.73 42.48 249.79 49.55 256.85 42.48"/><polygon class="cls-9" points="256.85 42.48 254.88 42.48 255.87 43.47 256.85 42.48"/><polygon class="cls-9" points="244.7 42.48 242.73 42.48 243.71 43.47 244.7 42.48"/><polygon class="cls-7" points="280.83 42.48 260.14 42.48 270.48 52.83 280.83 42.48"/><polygon class="cls-8" points="277.54 42.48 263.42 42.48 270.48 49.55 277.54 42.48"/><polygon class="cls-9" points="265.39 42.48 263.42 42.48 264.4 43.47 265.39 42.48"/><polygon class="cls-9" points="277.54 42.48 275.57 42.48 276.56 43.47 277.54 42.48"/><polygon class="cls-7" points="301.52 42.48 280.83 42.48 291.17 52.83 301.52 42.48"/><polygon class="cls-8" points="298.24 42.48 284.11 42.48 291.17 49.55 298.24 42.48"/><polygon class="cls-9" points="286.08 42.48 284.11 42.48 285.1 43.47 286.08 42.48"/><polygon class="cls-9" points="298.24 42.48 296.26 42.48 297.25 43.47 298.24 42.48"/><polygon class="cls-7" points="322.21 42.48 301.52 42.48 311.87 52.83 322.21 42.48"/><polygon class="cls-8" points="318.93 42.48 304.8 42.48 311.86 49.55 318.93 42.48"/><polygon class="cls-9" points="318.93 42.48 316.96 42.48 317.94 43.47 318.93 42.48"/><polygon class="cls-9" points="306.77 42.48 304.8 42.48 305.79 43.47 306.77 42.48"/><polygon class="cls-7" points="342.9 42.48 322.21 42.48 332.56 52.83 342.9 42.48"/><polygon class="cls-8" points="339.62 42.48 325.5 42.48 332.56 49.55 339.62 42.48"/><polygon class="cls-9" points="339.62 42.48 337.65 42.48 338.63 43.47 339.62 42.48"/><polygon class="cls-9" points="327.47 42.48 325.5 42.48 326.48 43.47 327.47 42.48"/><polygon class="cls-7" points="363.59 42.48 342.9 42.48 353.25 52.83 363.59 42.48"/><polygon class="cls-8" points="360.31 42.48 346.19 42.48 353.25 49.55 360.31 42.48"/><polygon class="cls-9" points="360.31 42.48 358.34 42.48 359.32 43.47 360.31 42.48"/><polygon class="cls-9" points="348.16 42.48 346.19 42.48 347.17 43.47 348.16 42.48"/><polygon class="cls-7" points="363.57 42.48 373.91 52.83 373.91 42.48 363.57 42.48"/><polygon class="cls-8" points="366.85 42.48 373.91 49.55 373.91 42.48 366.85 42.48"/><polygon class="cls-9" points="368.85 42.48 366.88 42.48 367.86 43.47 368.85 42.48"/><polygon class="cls-7" points="167.23 52.57 167.23 73.26 177.57 62.91 167.23 52.57"/><polygon class="cls-8" points="167.23 55.85 167.23 69.98 174.29 62.91 167.23 55.85"/><polygon class="cls-9" points="174.29 62.91 167.23 55.85 167.23 57.82 173.3 63.9 174.29 62.91"/><rect class="cls-7" x="180.4" y="55.6" width="14.63" height="14.63" transform="translate(10.49 151.16) rotate(-45)"/><rect class="cls-8" x="182.72" y="57.92" width="9.99" height="9.99" transform="translate(10.49 151.16) rotate(-45)"/><polygon class="cls-9" points="187.72 57.82 193.79 63.9 194.78 62.91 187.72 55.85 180.66 62.91 181.64 63.9 187.72 57.82"/><rect class="cls-7" x="201.09" y="55.6" width="14.63" height="14.63" transform="translate(16.55 165.8) rotate(-45)"/><rect class="cls-8" x="203.41" y="57.92" width="9.99" height="9.99" transform="translate(16.55 165.79) rotate(-45)"/><polygon class="cls-9" points="208.41 57.82 214.48 63.9 215.47 62.91 208.41 55.85 201.35 62.91 202.33 63.9 208.41 57.82"/><rect class="cls-7" x="221.78" y="55.6" width="14.63" height="14.63" transform="translate(22.61 180.43) rotate(-45)"/><rect class="cls-8" x="224.11" y="57.92" width="9.99" height="9.99" transform="translate(22.62 180.44) rotate(-45)"/><polygon class="cls-9" points="229.1 57.82 235.18 63.9 236.16 62.91 229.1 55.85 222.04 62.91 223.02 63.9 229.1 57.82"/><rect class="cls-7" x="242.47" y="55.6" width="14.63" height="14.63" transform="translate(28.68 195.06) rotate(-45)"/><rect class="cls-8" x="244.8" y="57.92" width="9.99" height="9.99" transform="translate(28.67 195.06) rotate(-45)"/><polygon class="cls-9" points="249.79 57.82 255.87 63.9 256.85 62.91 249.79 55.85 242.73 62.91 243.71 63.9 249.79 57.82"/><rect class="cls-7" x="170.06" y="45.25" width="14.63" height="14.63" transform="translate(14.78 140.82) rotate(-45)"/><rect class="cls-8" x="172.38" y="47.58" width="9.99" height="9.99" transform="translate(14.78 140.82) rotate(-45)"/><polygon class="cls-9" points="177.37 47.48 183.45 53.55 184.43 52.57 177.37 45.51 170.31 52.57 171.29 53.55 177.37 47.48"/><rect class="cls-7" x="190.75" y="45.25" width="14.63" height="14.63" transform="translate(20.84 155.45) rotate(-45)"/><rect class="cls-8" x="193.07" y="47.58" width="9.99" height="9.99" transform="translate(20.84 155.45) rotate(-45)"/><polygon class="cls-9" points="198.06 47.48 204.14 53.55 205.12 52.57 198.06 45.51 191 52.57 191.99 53.55 198.06 47.48"/><rect class="cls-7" x="211.44" y="45.25" width="14.63" height="14.63" transform="translate(26.9 170.08) rotate(-45)"/><rect class="cls-8" x="213.76" y="47.58" width="9.99" height="9.99" transform="translate(26.9 170.08) rotate(-45)"/><polygon class="cls-9" points="218.75 47.48 224.83 53.55 225.81 52.57 218.75 45.51 211.69 52.57 212.68 53.55 218.75 47.48"/><rect class="cls-7" x="232.13" y="45.25" width="14.63" height="14.63" transform="translate(32.96 184.71) rotate(-45)"/><rect class="cls-8" x="234.45" y="47.58" width="9.99" height="9.99" transform="translate(32.96 184.71) rotate(-45)"/><polygon class="cls-9" points="239.44 47.48 245.52 53.55 246.51 52.57 239.44 45.51 232.38 52.57 233.37 53.55 239.44 47.48"/><rect class="cls-7" x="263.17" y="55.6" width="14.63" height="14.63" transform="translate(34.74 209.69) rotate(-45)"/><rect class="cls-8" x="265.49" y="57.92" width="9.99" height="9.99" transform="translate(34.73 209.69) rotate(-45)"/><polygon class="cls-9" points="270.48 57.82 276.56 63.9 277.54 62.91 270.48 55.85 263.42 62.91 264.41 63.9 270.48 57.82"/><rect class="cls-7" x="252.82" y="45.25" width="14.63" height="14.63" transform="translate(39.02 199.34) rotate(-45)"/><rect class="cls-8" x="255.14" y="47.58" width="9.99" height="9.99" transform="translate(39.02 199.34) rotate(-45)"/><polygon class="cls-9" points="260.14 47.48 266.21 53.55 267.2 52.57 260.14 45.51 253.07 52.57 254.06 53.55 260.14 47.48"/><rect class="cls-7" x="283.86" y="55.6" width="14.63" height="14.63" transform="translate(40.8 224.32) rotate(-45)"/><rect class="cls-8" x="286.18" y="57.92" width="9.99" height="9.99" transform="translate(40.8 224.32) rotate(-45)"/><polygon class="cls-9" points="291.17 57.82 297.25 63.9 298.24 62.91 291.17 55.85 284.11 62.91 285.1 63.9 291.17 57.82"/><rect class="cls-7" x="273.51" y="45.25" width="14.63" height="14.63" transform="translate(45.08 213.97) rotate(-45)"/><rect class="cls-8" x="275.83" y="47.58" width="9.99" height="9.99" transform="translate(45.08 213.97) rotate(-45)"/><polygon class="cls-9" points="280.83 47.48 286.9 53.55 287.89 52.57 280.83 45.51 273.77 52.57 274.75 53.55 280.83 47.48"/><rect class="cls-7" x="304.55" y="55.6" width="14.63" height="14.63" transform="translate(46.86 238.95) rotate(-45)"/><rect class="cls-8" x="306.87" y="57.92" width="9.99" height="9.99" transform="translate(46.86 238.95) rotate(-45)"/><polygon class="cls-9" points="311.87 57.82 317.94 63.9 318.93 62.91 311.87 55.85 304.8 62.91 305.79 63.9 311.87 57.82"/><rect class="cls-7" x="294.2" y="45.25" width="14.63" height="14.63" transform="translate(51.13 228.59) rotate(-45)"/><rect class="cls-8" x="296.53" y="47.58" width="9.99" height="9.99" transform="translate(51.14 228.6) rotate(-45)"/><polygon class="cls-9" points="301.52 47.48 307.59 53.55 308.58 52.57 301.52 45.51 294.46 52.57 295.44 53.55 301.52 47.48"/><rect class="cls-7" x="325.24" y="55.6" width="14.63" height="14.63" transform="translate(52.92 253.58) rotate(-45)"/><rect class="cls-8" x="327.56" y="57.92" width="9.99" height="9.99" transform="translate(52.92 253.58) rotate(-45)"/><polygon class="cls-9" points="332.56 57.82 338.63 63.9 339.62 62.91 332.56 55.85 325.5 62.91 326.48 63.9 332.56 57.82"/><rect class="cls-7" x="314.9" y="45.25" width="14.63" height="14.63" transform="translate(57.2 243.24) rotate(-45)"/><rect class="cls-8" x="317.22" y="47.58" width="9.99" height="9.99" transform="translate(57.2 243.23) rotate(-45)"/><polygon class="cls-9" points="322.21 47.48 328.29 53.55 329.27 52.57 322.21 45.51 315.15 52.57 316.13 53.55 322.21 47.48"/><rect class="cls-7" x="345.93" y="55.6" width="14.63" height="14.63" transform="translate(58.98 268.21) rotate(-45)"/><rect class="cls-8" x="348.25" y="57.92" width="9.99" height="9.99" transform="translate(58.98 268.21) rotate(-45)"/><polygon class="cls-9" points="353.25 57.82 359.32 63.9 360.31 62.91 353.25 55.85 346.19 62.91 347.17 63.9 353.25 57.82"/><rect class="cls-7" x="335.59" y="45.25" width="14.63" height="14.63" transform="translate(63.25 257.85) rotate(-45)"/><rect class="cls-8" x="337.91" y="47.58" width="9.99" height="9.99" transform="translate(63.26 257.87) rotate(-45)"/><polygon class="cls-9" points="342.9 47.48 348.98 53.55 349.96 52.57 342.9 45.51 335.84 52.57 336.83 53.55 342.9 47.48"/><polygon class="cls-7" points="363.57 62.91 373.91 73.26 373.91 52.57 363.57 62.91"/><polygon class="cls-8" points="366.85 62.91 373.91 69.98 373.91 55.85 366.85 62.91"/><polygon class="cls-9" points="366.85 62.91 367.84 63.9 373.91 57.82 373.91 55.85 366.85 62.91"/><rect class="cls-7" x="356.28" y="45.25" width="14.63" height="14.63" transform="translate(69.32 272.5) rotate(-45)"/><rect class="cls-8" x="358.6" y="47.58" width="9.99" height="9.99" transform="translate(69.32 272.5) rotate(-45)"/><polygon class="cls-9" points="363.59 47.48 369.67 53.55 370.65 52.57 363.59 45.51 356.53 52.57 357.52 53.55 363.59 47.48"/><polygon class="cls-7" points="167.23 73.26 167.23 93.95 177.57 83.61 167.23 73.26"/><polygon class="cls-8" points="167.23 76.55 167.23 90.67 174.29 83.61 167.23 76.55"/><polygon class="cls-9" points="174.29 83.61 167.23 76.55 167.23 78.52 173.3 84.59 174.29 83.61"/><rect class="cls-7" x="180.4" y="76.29" width="14.63" height="14.63" transform="translate(-4.13 157.23) rotate(-45)"/><rect class="cls-8" x="182.72" y="78.61" width="9.99" height="9.99" transform="translate(-4.14 157.22) rotate(-45)"/><polygon class="cls-9" points="187.72 78.52 193.79 84.59 194.78 83.61 187.72 76.55 180.66 83.61 181.64 84.59 187.72 78.52"/><rect class="cls-7" x="201.09" y="76.29" width="14.63" height="14.63" transform="translate(1.93 171.87) rotate(-45)"/><rect class="cls-8" x="203.41" y="78.61" width="9.99" height="9.99" transform="translate(1.92 171.85) rotate(-45)"/><polygon class="cls-9" points="208.41 78.52 214.48 84.59 215.47 83.61 208.41 76.55 201.35 83.61 202.33 84.59 208.41 78.52"/><rect class="cls-7" x="221.78" y="76.29" width="14.63" height="14.63" transform="translate(7.99 186.5) rotate(-45)"/><rect class="cls-8" x="224.11" y="78.61" width="9.99" height="9.99" transform="translate(7.99 186.5) rotate(-45)"/><polygon class="cls-9" points="229.1 78.52 235.18 84.59 236.16 83.61 229.1 76.55 222.04 83.61 223.02 84.59 229.1 78.52"/><rect class="cls-7" x="242.47" y="76.29" width="14.63" height="14.63" transform="translate(14.05 201.13) rotate(-45)"/><rect class="cls-8" x="244.8" y="78.61" width="9.99" height="9.99" transform="translate(14.04 201.12) rotate(-45)"/><polygon class="cls-9" points="249.79 78.52 255.87 84.59 256.85 83.61 249.79 76.55 242.73 83.61 243.71 84.59 249.79 78.52"/><rect class="cls-7" x="170.06" y="65.95" width="14.63" height="14.63" transform="translate(0.15 146.88) rotate(-45)"/><rect class="cls-8" x="172.38" y="68.27" width="9.99" height="9.99" transform="translate(0.15 146.88) rotate(-45)"/><polygon class="cls-9" points="177.37 68.17 183.45 74.25 184.43 73.26 177.37 66.2 170.31 73.26 171.29 74.25 177.37 68.17"/><rect class="cls-7" x="190.75" y="65.95" width="14.63" height="14.63" transform="translate(6.21 161.51) rotate(-45)"/><rect class="cls-8" x="193.07" y="68.27" width="9.99" height="9.99" transform="translate(6.21 161.51) rotate(-45)"/><polygon class="cls-9" points="198.06 68.17 204.14 74.25 205.12 73.26 198.06 66.2 191 73.26 191.99 74.25 198.06 68.17"/><rect class="cls-7" x="211.44" y="65.95" width="14.63" height="14.63" transform="translate(12.27 176.14) rotate(-45)"/><rect class="cls-8" x="213.76" y="68.27" width="9.99" height="9.99" transform="translate(12.27 176.14) rotate(-45)"/><polygon class="cls-9" points="218.75 68.17 224.83 74.25 225.81 73.26 218.75 66.2 211.69 73.26 212.68 74.25 218.75 68.17"/><rect class="cls-7" x="232.13" y="65.95" width="14.63" height="14.63" transform="translate(18.33 190.77) rotate(-45)"/><rect class="cls-8" x="234.45" y="68.27" width="9.99" height="9.99" transform="translate(18.33 190.77) rotate(-45)"/><polygon class="cls-9" points="239.44 68.17 245.52 74.25 246.51 73.26 239.44 66.2 232.38 73.26 233.37 74.25 239.44 68.17"/><rect class="cls-7" x="263.17" y="76.29" width="14.63" height="14.63" transform="translate(20.11 215.76) rotate(-45)"/><rect class="cls-8" x="265.49" y="78.61" width="9.99" height="9.99" transform="translate(20.1 215.75) rotate(-45)"/><polygon class="cls-9" points="270.48 78.52 276.56 84.59 277.54 83.61 270.48 76.55 263.42 83.61 264.41 84.59 270.48 78.52"/><rect class="cls-7" x="252.82" y="65.95" width="14.63" height="14.63" transform="translate(24.39 205.4) rotate(-45)"/><rect class="cls-8" x="255.14" y="68.27" width="9.99" height="9.99" transform="translate(24.39 205.4) rotate(-45)"/><polygon class="cls-9" points="260.14 68.17 266.21 74.25 267.2 73.26 260.14 66.2 253.07 73.26 254.06 74.25 260.14 68.17"/><rect class="cls-7" x="283.86" y="76.29" width="14.63" height="14.63" transform="translate(26.17 230.39) rotate(-45)"/><rect class="cls-8" x="286.18" y="78.61" width="9.99" height="9.99" transform="translate(26.16 230.38) rotate(-45)"/><polygon class="cls-9" points="291.17 78.52 297.25 84.59 298.24 83.61 291.17 76.55 284.11 83.61 285.1 84.59 291.17 78.52"/><rect class="cls-7" x="273.51" y="65.95" width="14.63" height="14.63" transform="translate(30.45 220.03) rotate(-45)"/><rect class="cls-8" x="275.83" y="68.27" width="9.99" height="9.99" transform="translate(30.45 220.03) rotate(-45)"/><polygon class="cls-9" points="280.83 68.17 286.9 74.25 287.89 73.26 280.83 66.2 273.77 73.26 274.75 74.25 280.83 68.17"/><rect class="cls-7" x="304.55" y="76.29" width="14.63" height="14.63" transform="translate(32.23 245.02) rotate(-45)"/><rect class="cls-8" x="306.87" y="78.61" width="9.99" height="9.99" transform="translate(32.22 245.01) rotate(-45)"/><polygon class="cls-9" points="311.87 78.52 317.94 84.59 318.93 83.61 311.87 76.55 304.8 83.61 305.79 84.59 311.87 78.52"/><rect class="cls-7" x="294.2" y="65.95" width="14.63" height="14.63" transform="translate(36.5 234.65) rotate(-45)"/><rect class="cls-8" x="296.53" y="68.27" width="9.99" height="9.99" transform="translate(36.51 234.66) rotate(-45)"/><polygon class="cls-9" points="301.52 68.17 307.59 74.25 308.58 73.26 301.52 66.2 294.46 73.26 295.44 74.25 301.52 68.17"/><rect class="cls-7" x="325.24" y="76.29" width="14.63" height="14.63" transform="translate(38.29 259.66) rotate(-45)"/><rect class="cls-8" x="327.56" y="78.61" width="9.99" height="9.99" transform="translate(38.28 259.64) rotate(-45)"/><polygon class="cls-9" points="332.56 78.52 338.63 84.59 339.62 83.61 332.56 76.55 325.5 83.61 326.48 84.59 332.56 78.52"/><rect class="cls-7" x="314.89" y="65.95" width="14.63" height="14.63" transform="translate(42.57 249.3) rotate(-45)"/><rect class="cls-8" x="317.22" y="68.27" width="9.99" height="9.99" transform="translate(42.57 249.29) rotate(-45)"/><polygon class="cls-9" points="322.21 68.17 328.29 74.25 329.27 73.26 322.21 66.2 315.15 73.26 316.13 74.25 322.21 68.17"/><rect class="cls-7" x="345.93" y="76.29" width="14.63" height="14.63" transform="translate(44.36 274.29) rotate(-45)"/><rect class="cls-8" x="348.25" y="78.61" width="9.99" height="9.99" transform="translate(44.35 274.27) rotate(-45)"/><polygon class="cls-9" points="353.25 78.52 359.32 84.59 360.31 83.61 353.25 76.55 346.19 83.61 347.17 84.59 353.25 78.52"/><rect class="cls-7" x="335.59" y="65.95" width="14.63" height="14.63" transform="translate(48.62 263.91) rotate(-45)"/><rect class="cls-8" x="337.91" y="68.27" width="9.99" height="9.99" transform="translate(48.63 263.93) rotate(-45)"/><polygon class="cls-9" points="342.9 68.17 348.98 74.25 349.96 73.26 342.9 66.2 335.84 73.26 336.83 74.25 342.9 68.17"/><polygon class="cls-7" points="363.57 83.61 373.91 93.95 373.91 73.26 363.57 83.61"/><polygon class="cls-8" points="366.85 83.61 373.91 90.67 373.91 76.55 366.85 83.61"/><polygon class="cls-9" points="366.85 83.61 367.84 84.59 373.91 78.52 373.91 76.55 366.85 83.61"/><rect class="cls-7" x="356.28" y="65.95" width="14.63" height="14.63" transform="translate(54.69 278.56) rotate(-45)"/><rect class="cls-8" x="358.6" y="68.27" width="9.99" height="9.99" transform="translate(54.69 278.56) rotate(-45)"/><polygon class="cls-9" points="363.59 68.17 369.67 74.25 370.65 73.26 363.59 66.2 356.53 73.26 357.52 74.25 363.59 68.17"/><polygon class="cls-7" points="167.23 93.95 167.23 114.64 177.57 104.3 167.23 93.95"/><polygon class="cls-8" points="167.23 97.24 167.23 111.36 174.29 104.3 167.23 97.24"/><polygon class="cls-9" points="174.29 104.3 167.23 97.24 167.23 99.21 173.3 105.28 174.29 104.3"/><rect class="cls-7" x="180.4" y="96.98" width="14.63" height="14.63" transform="translate(-18.77 163.29) rotate(-45)"/><rect class="cls-8" x="182.72" y="99.3" width="9.99" height="9.99" transform="translate(-18.77 163.28) rotate(-45)"/><polygon class="cls-9" points="187.72 99.21 193.79 105.28 194.78 104.3 187.72 97.24 180.66 104.3 181.64 105.28 187.72 99.21"/><rect class="cls-7" x="201.09" y="96.98" width="14.63" height="14.63" transform="translate(-12.71 177.92) rotate(-45)"/><rect class="cls-8" x="203.41" y="99.3" width="9.99" height="9.99" transform="translate(-12.71 177.91) rotate(-45)"/><polygon class="cls-9" points="208.41 99.21 214.48 105.28 215.47 104.3 208.41 97.24 201.35 104.3 202.33 105.28 208.41 99.21"/><rect class="cls-7" x="221.78" y="96.98" width="14.63" height="14.63" transform="translate(-6.65 192.55) rotate(-45)"/><rect class="cls-8" x="224.11" y="99.3" width="9.99" height="9.99" transform="translate(-6.64 192.56) rotate(-45)"/><polygon class="cls-9" points="229.1 99.21 235.18 105.28 236.16 104.3 229.1 97.24 222.04 104.3 223.02 105.28 229.1 99.21"/><rect class="cls-7" x="242.47" y="96.98" width="14.63" height="14.63" transform="translate(-0.59 207.18) rotate(-45)"/><rect class="cls-8" x="244.8" y="99.3" width="9.99" height="9.99" transform="translate(-0.59 207.18) rotate(-45)"/><polygon class="cls-9" points="249.79 99.21 255.87 105.28 256.85 104.3 249.79 97.24 242.73 104.3 243.71 105.28 249.79 99.21"/><rect class="cls-7" x="170.06" y="86.64" width="14.63" height="14.63" transform="translate(-14.48 152.94) rotate(-45)"/><rect class="cls-8" x="172.38" y="88.96" width="9.99" height="9.99" transform="translate(-14.48 152.94) rotate(-45)"/><polygon class="cls-9" points="177.37 88.86 183.45 94.94 184.43 93.95 177.37 86.89 170.31 93.95 171.29 94.94 177.37 88.86"/><rect class="cls-7" x="190.75" y="86.64" width="14.63" height="14.63" transform="translate(-8.42 167.57) rotate(-45)"/><rect class="cls-8" x="193.07" y="88.96" width="9.99" height="9.99" transform="translate(-8.42 167.57) rotate(-45)"/><polygon class="cls-9" points="198.06 88.86 204.14 94.94 205.12 93.95 198.06 86.89 191 93.95 191.99 94.94 198.06 88.86"/><rect class="cls-7" x="211.44" y="86.64" width="14.63" height="14.63" transform="translate(-2.36 182.2) rotate(-45)"/><rect class="cls-8" x="213.76" y="88.96" width="9.99" height="9.99" transform="translate(-2.36 182.2) rotate(-45)"/><polygon class="cls-9" points="218.75 88.86 224.83 94.94 225.81 93.95 218.75 86.89 211.69 93.95 212.68 94.94 218.75 88.86"/><rect class="cls-7" x="232.13" y="86.64" width="14.63" height="14.63" transform="translate(3.7 196.83) rotate(-45)"/><rect class="cls-8" x="234.45" y="88.96" width="9.99" height="9.99" transform="translate(3.7 196.83) rotate(-45)"/><polygon class="cls-9" points="239.44 88.86 245.52 94.94 246.51 93.95 239.44 86.89 232.38 93.95 233.37 94.94 239.44 88.86"/><rect class="cls-7" x="263.17" y="96.98" width="14.63" height="14.63" transform="translate(5.47 221.81) rotate(-45)"/><rect class="cls-8" x="265.49" y="99.3" width="9.99" height="9.99" transform="translate(5.47 221.81) rotate(-45)"/><polygon class="cls-9" points="270.48 99.21 276.56 105.28 277.54 104.3 270.48 97.24 263.42 104.3 264.41 105.28 270.48 99.21"/><rect class="cls-7" x="252.82" y="86.64" width="14.63" height="14.63" transform="translate(9.76 211.46) rotate(-45)"/><rect class="cls-8" x="255.14" y="88.96" width="9.99" height="9.99" transform="translate(9.76 211.46) rotate(-45)"/><polygon class="cls-9" points="260.14 88.86 266.21 94.94 267.2 93.95 260.14 86.89 253.07 93.95 254.06 94.94 260.14 88.86"/><rect class="cls-7" x="283.86" y="96.98" width="14.63" height="14.63" transform="translate(11.53 236.44) rotate(-45)"/><rect class="cls-8" x="286.18" y="99.3" width="9.99" height="9.99" transform="translate(11.53 236.44) rotate(-45)"/><polygon class="cls-9" points="291.17 99.21 297.25 105.28 298.24 104.3 291.17 97.24 284.11 104.3 285.1 105.28 291.17 99.21"/><rect class="cls-7" x="273.51" y="86.64" width="14.63" height="14.63" transform="translate(15.82 226.09) rotate(-45)"/><rect class="cls-8" x="275.83" y="88.96" width="9.99" height="9.99" transform="translate(15.82 226.09) rotate(-45)"/><polygon class="cls-9" points="280.83 88.86 286.9 94.94 287.89 93.95 280.83 86.89 273.77 93.95 274.75 94.94 280.83 88.86"/><rect class="cls-7" x="304.55" y="96.98" width="14.63" height="14.63" transform="translate(17.59 251.07) rotate(-45)"/><rect class="cls-8" x="306.87" y="99.3" width="9.99" height="9.99" transform="translate(17.59 251.07) rotate(-45)"/><polygon class="cls-9" points="311.87 99.21 317.94 105.28 318.93 104.3 311.87 97.24 304.8 104.3 305.79 105.28 311.87 99.21"/><rect class="cls-7" x="294.2" y="86.64" width="14.63" height="14.63" transform="translate(21.87 240.71) rotate(-45)"/><rect class="cls-8" x="296.53" y="88.96" width="9.99" height="9.99" transform="translate(21.88 240.72) rotate(-45)"/><polygon class="cls-9" points="301.52 88.86 307.59 94.94 308.58 93.95 301.52 86.89 294.46 93.95 295.44 94.94 301.52 88.86"/><rect class="cls-7" x="325.24" y="96.98" width="14.63" height="14.63" transform="translate(23.65 265.7) rotate(-45)"/><rect class="cls-8" x="327.56" y="99.3" width="9.99" height="9.99" transform="translate(23.65 265.7) rotate(-45)"/><polygon class="cls-9" points="332.56 99.21 338.63 105.28 339.62 104.3 332.56 97.24 325.5 104.3 326.48 105.28 332.56 99.21"/><rect class="cls-7" x="314.9" y="86.64" width="14.63" height="14.63" transform="translate(27.94 255.36) rotate(-45)"/><rect class="cls-8" x="317.22" y="88.96" width="9.99" height="9.99" transform="translate(27.94 255.36) rotate(-45)"/><polygon class="cls-9" points="322.21 88.86 328.29 94.94 329.27 93.95 322.21 86.89 315.15 93.95 316.13 94.94 322.21 88.86"/><rect class="cls-7" x="345.93" y="96.98" width="14.63" height="14.63" transform="translate(29.72 280.33) rotate(-45)"/><rect class="cls-8" x="348.25" y="99.3" width="9.99" height="9.99" transform="translate(29.71 280.33) rotate(-45)"/><polygon class="cls-9" points="353.25 99.21 359.32 105.28 360.31 104.3 353.25 97.24 346.19 104.3 347.17 105.28 353.25 99.21"/><rect class="cls-7" x="335.59" y="86.64" width="14.63" height="14.63" transform="translate(33.99 269.97) rotate(-45)"/><rect class="cls-8" x="337.91" y="88.96" width="9.99" height="9.99" transform="translate(34 269.99) rotate(-45)"/><polygon class="cls-9" points="342.9 88.86 348.98 94.94 349.96 93.95 342.9 86.89 335.84 93.95 336.83 94.94 342.9 88.86"/><polygon class="cls-7" points="363.57 104.3 373.91 114.64 373.91 93.95 363.57 104.3"/><polygon class="cls-8" points="366.85 104.3 373.91 111.36 373.91 97.24 366.85 104.3"/><polygon class="cls-9" points="366.85 104.3 367.84 105.28 373.91 99.21 373.91 97.24 366.85 104.3"/><rect class="cls-7" x="356.28" y="86.64" width="14.63" height="14.63" transform="translate(40.06 284.62) rotate(-45)"/><rect class="cls-8" x="358.6" y="88.96" width="9.99" height="9.99" transform="translate(40.06 284.62) rotate(-45)"/><polygon class="cls-9" points="363.59 88.86 369.67 94.94 370.65 93.95 363.59 86.89 356.53 93.95 357.52 94.94 363.59 88.86"/><polygon class="cls-7" points="167.23 114.64 167.23 135.33 177.57 124.99 167.23 114.64"/><polygon class="cls-8" points="167.23 117.93 167.23 132.05 174.29 124.99 167.23 117.93"/><polygon class="cls-9" points="174.29 124.99 167.23 117.93 167.23 119.9 173.3 125.97 174.29 124.99"/><rect class="cls-7" x="180.4" y="117.67" width="14.63" height="14.63" transform="translate(-33.4 169.35) rotate(-45)"/><rect class="cls-8" x="182.72" y="120" width="9.99" height="9.99" transform="translate(-33.4 169.34) rotate(-45)"/><polygon class="cls-9" points="187.72 119.9 193.79 125.97 194.78 124.99 187.72 117.93 180.66 124.99 181.64 125.97 187.72 119.9"/><rect class="cls-7" x="201.09" y="117.67" width="14.63" height="14.63" transform="translate(-27.34 183.98) rotate(-45)"/><rect class="cls-8" x="203.41" y="120" width="9.99" height="9.99" transform="translate(-27.34 183.98) rotate(-45)"/><polygon class="cls-9" points="208.41 119.9 214.48 125.97 215.47 124.99 208.41 117.93 201.35 124.99 202.33 125.97 208.41 119.9"/><rect class="cls-7" x="221.78" y="117.67" width="14.63" height="14.63" transform="translate(-21.28 198.61) rotate(-45)"/><rect class="cls-8" x="224.11" y="120" width="9.99" height="9.99" transform="translate(-21.27 198.62) rotate(-45)"/><polygon class="cls-9" points="229.1 119.9 235.18 125.97 236.16 124.99 229.1 117.93 222.04 124.99 223.02 125.97 229.1 119.9"/><rect class="cls-7" x="242.47" y="117.67" width="14.63" height="14.63" transform="translate(-15.22 213.24) rotate(-45)"/><rect class="cls-8" x="244.8" y="120" width="9.99" height="9.99" transform="translate(-15.22 213.24) rotate(-45)"/><polygon class="cls-9" points="249.79 119.9 255.87 125.97 256.85 124.99 249.79 117.93 242.73 124.99 243.71 125.97 249.79 119.9"/><rect class="cls-7" x="170.06" y="107.33" width="14.63" height="14.63" transform="translate(-29.11 159.01) rotate(-45)"/><rect class="cls-8" x="172.38" y="109.65" width="9.99" height="9.99" transform="translate(-29.11 159) rotate(-45)"/><polygon class="cls-9" points="177.37 109.55 183.45 115.63 184.43 114.64 177.37 107.58 170.31 114.64 171.29 115.63 177.37 109.55"/><rect class="cls-7" x="190.75" y="107.33" width="14.63" height="14.63" transform="translate(-23.05 173.64) rotate(-45)"/><rect class="cls-8" x="193.07" y="109.65" width="9.99" height="9.99" transform="translate(-23.05 173.63) rotate(-45)"/><polygon class="cls-9" points="198.06 109.55 204.14 115.63 205.12 114.64 198.06 107.58 191 114.64 191.99 115.63 198.06 109.55"/><rect class="cls-7" x="211.44" y="107.33" width="14.63" height="14.63" transform="translate(-16.99 188.27) rotate(-45)"/><rect class="cls-8" x="213.76" y="109.65" width="9.99" height="9.99" transform="translate(-16.99 188.26) rotate(-45)"/><polygon class="cls-9" points="218.75 109.55 224.83 115.63 225.81 114.64 218.75 107.58 211.69 114.64 212.68 115.63 218.75 109.55"/><rect class="cls-7" x="232.13" y="107.33" width="14.63" height="14.63" transform="translate(-10.93 202.9) rotate(-45)"/><rect class="cls-8" x="234.45" y="109.65" width="9.99" height="9.99" transform="translate(-10.93 202.89) rotate(-45)"/><polygon class="cls-9" points="239.44 109.55 245.52 115.63 246.51 114.64 239.44 107.58 232.38 114.64 233.37 115.63 239.44 109.55"/><rect class="cls-7" x="263.17" y="117.67" width="14.63" height="14.63" transform="translate(-9.16 227.87) rotate(-45)"/><rect class="cls-8" x="265.49" y="120" width="9.99" height="9.99" transform="translate(-9.16 227.87) rotate(-45)"/><polygon class="cls-9" points="270.48 119.9 276.56 125.97 277.54 124.99 270.48 117.93 263.42 124.99 264.41 125.97 270.48 119.9"/><rect class="cls-7" x="252.82" y="107.33" width="14.63" height="14.63" transform="translate(-4.87 217.54) rotate(-45)"/><rect class="cls-8" x="255.14" y="109.65" width="9.99" height="9.99" transform="translate(-4.87 217.52) rotate(-45)"/><polygon class="cls-9" points="260.14 109.55 266.21 115.63 267.2 114.64 260.14 107.58 253.07 114.64 254.06 115.63 260.14 109.55"/><rect class="cls-7" x="283.86" y="117.67" width="14.63" height="14.63" transform="translate(-3.1 242.5) rotate(-45)"/><rect class="cls-8" x="286.18" y="120" width="9.99" height="9.99" transform="translate(-3.1 242.5) rotate(-45)"/><polygon class="cls-9" points="291.17 119.9 297.25 125.97 298.24 124.99 291.17 117.93 284.11 124.99 285.1 125.97 291.17 119.9"/><rect class="cls-7" x="273.51" y="107.33" width="14.63" height="14.63" transform="translate(1.19 232.17) rotate(-45)"/><rect class="cls-8" x="275.83" y="109.65" width="9.99" height="9.99" transform="translate(1.19 232.15) rotate(-45)"/><polygon class="cls-9" points="280.83 109.55 286.9 115.63 287.89 114.64 280.83 107.58 273.77 114.64 274.75 115.63 280.83 109.55"/><rect class="cls-7" x="304.55" y="117.67" width="14.63" height="14.63" transform="translate(2.96 257.13) rotate(-45)"/><rect class="cls-8" x="306.87" y="120" width="9.99" height="9.99" transform="translate(2.96 257.13) rotate(-45)"/><polygon class="cls-9" points="311.87 119.9 317.94 125.97 318.93 124.99 311.87 117.93 304.8 124.99 305.79 125.97 311.87 119.9"/><rect class="cls-7" x="294.2" y="107.33" width="14.63" height="14.63" transform="translate(7.25 246.79) rotate(-45)"/><rect class="cls-8" x="296.53" y="109.65" width="9.99" height="9.99" transform="translate(7.25 246.78) rotate(-45)"/><polygon class="cls-9" points="301.52 109.55 307.59 115.63 308.58 114.64 301.52 107.58 294.46 114.64 295.44 115.63 301.52 109.55"/><rect class="cls-7" x="325.24" y="117.67" width="14.63" height="14.63" transform="translate(9.02 271.76) rotate(-45)"/><rect class="cls-8" x="327.56" y="120" width="9.99" height="9.99" transform="translate(9.02 271.76) rotate(-45)"/><polygon class="cls-9" points="332.56 119.9 338.63 125.97 339.62 124.99 332.56 117.93 325.5 124.99 326.48 125.97 332.56 119.9"/><rect class="cls-7" x="314.9" y="107.33" width="14.63" height="14.63" transform="translate(13.32 261.43) rotate(-45)"/><rect class="cls-8" x="317.22" y="109.65" width="9.99" height="9.99" transform="translate(13.31 261.42) rotate(-45)"/><polygon class="cls-9" points="322.21 109.55 328.29 115.63 329.27 114.64 322.21 107.58 315.15 114.64 316.13 115.63 322.21 109.55"/><rect class="cls-7" x="345.93" y="117.67" width="14.63" height="14.63" transform="translate(15.08 286.39) rotate(-45)"/><rect class="cls-8" x="348.25" y="120" width="9.99" height="9.99" transform="translate(15.08 286.39) rotate(-45)"/><polygon class="cls-9" points="353.25 119.9 359.32 125.97 360.31 124.99 353.25 117.93 346.19 124.99 347.17 125.97 353.25 119.9"/><rect class="cls-7" x="335.59" y="107.33" width="14.63" height="14.63" transform="translate(19.37 276.05) rotate(-45)"/><rect class="cls-8" x="337.91" y="109.65" width="9.99" height="9.99" transform="translate(19.37 276.05) rotate(-45)"/><polygon class="cls-9" points="342.9 109.55 348.98 115.63 349.96 114.64 342.9 107.58 335.84 114.64 336.83 115.63 342.9 109.55"/><polygon class="cls-7" points="363.57 124.99 373.91 135.33 373.91 114.64 363.57 124.99"/><polygon class="cls-8" points="366.85 124.99 373.91 132.05 373.91 117.93 366.85 124.99"/><polygon class="cls-9" points="366.85 124.99 367.84 125.97 373.91 119.9 373.91 117.93 366.85 124.99"/><rect class="cls-7" x="356.28" y="107.33" width="14.63" height="14.63" transform="translate(25.44 290.7) rotate(-45)"/><rect class="cls-8" x="358.6" y="109.65" width="9.99" height="9.99" transform="translate(25.43 290.68) rotate(-45)"/><polygon class="cls-9" points="363.59 109.55 369.67 115.63 370.65 114.64 363.59 107.58 356.53 114.64 357.52 115.63 363.59 109.55"/><polygon class="cls-7" points="167.23 135.33 167.23 156.03 177.57 145.68 167.23 135.33"/><polygon class="cls-8" points="167.23 138.62 167.23 152.74 174.29 145.68 167.23 138.62"/><polygon class="cls-9" points="174.29 145.68 167.23 138.62 167.23 140.59 173.3 146.67 174.29 145.68"/><rect class="cls-7" x="180.4" y="138.36" width="14.63" height="14.63" transform="translate(-48.03 175.41) rotate(-45)"/><rect class="cls-8" x="182.72" y="140.69" width="9.99" height="9.99" transform="translate(-48.03 175.4) rotate(-45)"/><polygon class="cls-9" points="187.72 140.59 193.79 146.66 194.78 145.68 187.72 138.62 180.66 145.68 181.64 146.66 187.72 140.59"/><rect class="cls-7" x="201.09" y="138.36" width="14.63" height="14.63" transform="translate(-41.97 190.04) rotate(-45)"/><rect class="cls-8" x="203.41" y="140.69" width="9.99" height="9.99" transform="translate(-41.97 190.04) rotate(-45)"/><polygon class="cls-9" points="208.41 140.59 214.48 146.66 215.47 145.68 208.41 138.62 201.35 145.68 202.33 146.66 208.41 140.59"/><rect class="cls-7" x="221.78" y="138.36" width="14.63" height="14.63" transform="translate(-35.91 204.67) rotate(-45)"/><rect class="cls-8" x="224.11" y="140.69" width="9.99" height="9.99" transform="translate(-35.91 204.69) rotate(-45)"/><polygon class="cls-9" points="229.1 140.59 235.18 146.66 236.16 145.68 229.1 138.62 222.04 145.68 223.02 146.66 229.1 140.59"/><rect class="cls-7" x="242.47" y="138.36" width="14.63" height="14.63" transform="translate(-29.85 219.3) rotate(-45)"/><rect class="cls-8" x="244.8" y="140.69" width="9.99" height="9.99" transform="translate(-29.85 219.3) rotate(-45)"/><polygon class="cls-9" points="249.79 140.59 255.87 146.66 256.85 145.68 249.79 138.62 242.73 145.68 243.71 146.66 249.79 140.59"/><rect class="cls-7" x="170.06" y="128.02" width="14.63" height="14.63" transform="translate(-43.75 165.06) rotate(-45)"/><rect class="cls-8" x="172.38" y="130.34" width="9.99" height="9.99" transform="translate(-43.75 165.06) rotate(-45)"/><polygon class="cls-9" points="177.37 130.24 183.45 136.32 184.43 135.34 177.37 128.27 170.31 135.34 171.29 136.32 177.37 130.24"/><rect class="cls-7" x="190.75" y="128.02" width="14.63" height="14.63" transform="translate(-37.68 179.69) rotate(-45)"/><rect class="cls-8" x="193.07" y="130.34" width="9.99" height="9.99" transform="translate(-37.68 179.69) rotate(-45)"/><polygon class="cls-9" points="198.06 130.24 204.14 136.32 205.12 135.34 198.06 128.27 191 135.34 191.99 136.32 198.06 130.24"/><rect class="cls-7" x="211.44" y="128.02" width="14.63" height="14.63" transform="translate(-31.62 194.32) rotate(-45)"/><rect class="cls-8" x="213.76" y="130.34" width="9.99" height="9.99" transform="translate(-31.62 194.32) rotate(-45)"/><polygon class="cls-9" points="218.75 130.24 224.83 136.32 225.81 135.34 218.75 128.27 211.69 135.34 212.68 136.32 218.75 130.24"/><rect class="cls-7" x="232.13" y="128.02" width="14.63" height="14.63" transform="translate(-25.56 208.95) rotate(-45)"/><rect class="cls-8" x="234.45" y="130.34" width="9.99" height="9.99" transform="translate(-25.56 208.95) rotate(-45)"/><polygon class="cls-9" points="239.44 130.24 245.52 136.32 246.51 135.34 239.44 128.27 232.38 135.34 233.37 136.32 239.44 130.24"/><rect class="cls-7" x="263.17" y="138.36" width="14.63" height="14.63" transform="translate(-23.79 233.93) rotate(-45)"/><rect class="cls-8" x="265.49" y="140.69" width="9.99" height="9.99" transform="translate(-23.79 233.93) rotate(-45)"/><polygon class="cls-9" points="270.48 140.59 276.56 146.66 277.54 145.68 270.48 138.62 263.42 145.68 264.41 146.66 270.48 140.59"/><rect class="cls-7" x="252.82" y="128.02" width="14.63" height="14.63" transform="translate(-19.5 223.58) rotate(-45)"/><rect class="cls-8" x="255.14" y="130.34" width="9.99" height="9.99" transform="translate(-19.5 223.58) rotate(-45)"/><polygon class="cls-9" points="260.14 130.24 266.21 136.32 267.2 135.34 260.14 128.27 253.07 135.34 254.06 136.32 260.14 130.24"/><rect class="cls-7" x="283.86" y="138.36" width="14.63" height="14.63" transform="translate(-17.73 248.56) rotate(-45)"/><rect class="cls-8" x="286.18" y="140.69" width="9.99" height="9.99" transform="translate(-17.73 248.56) rotate(-45)"/><polygon class="cls-9" points="291.17 140.59 297.25 146.66 298.24 145.68 291.17 138.62 284.11 145.68 285.1 146.66 291.17 140.59"/><rect class="cls-7" x="273.51" y="128.02" width="14.63" height="14.63" transform="translate(-13.44 238.21) rotate(-45)"/><rect class="cls-8" x="275.83" y="130.34" width="9.99" height="9.99" transform="translate(-13.44 238.21) rotate(-45)"/><polygon class="cls-9" points="280.83 130.24 286.9 136.32 287.89 135.34 280.83 128.27 273.77 135.34 274.75 136.32 280.83 130.24"/><rect class="cls-7" x="304.55" y="138.36" width="14.63" height="14.63" transform="translate(-11.67 263.19) rotate(-45)"/><rect class="cls-8" x="306.87" y="140.69" width="9.99" height="9.99" transform="translate(-11.67 263.19) rotate(-45)"/><polygon class="cls-9" points="311.87 140.59 317.94 146.66 318.93 145.68 311.87 138.62 304.8 145.68 305.79 146.66 311.87 140.59"/><rect class="cls-7" x="294.2" y="128.02" width="14.63" height="14.63" transform="translate(-7.39 252.83) rotate(-45)"/><rect class="cls-8" x="296.53" y="130.34" width="9.99" height="9.99" transform="translate(-7.38 252.84) rotate(-45)"/><polygon class="cls-9" points="301.52 130.24 307.59 136.32 308.58 135.34 301.52 128.27 294.46 135.34 295.44 136.32 301.52 130.24"/><rect class="cls-7" x="325.24" y="138.36" width="14.63" height="14.63" transform="translate(-5.61 277.82) rotate(-45)"/><rect class="cls-8" x="327.56" y="140.69" width="9.99" height="9.99" transform="translate(-5.61 277.82) rotate(-45)"/><polygon class="cls-9" points="332.56 140.59 338.63 146.66 339.62 145.68 332.56 138.62 325.5 145.68 326.48 146.66 332.56 140.59"/><rect class="cls-7" x="314.89" y="128.02" width="14.63" height="14.63" transform="translate(-1.32 267.48) rotate(-45)"/><rect class="cls-8" x="317.22" y="130.34" width="9.99" height="9.99" transform="translate(-1.32 267.48) rotate(-45)"/><polygon class="cls-9" points="322.21 130.24 328.29 136.32 329.27 135.34 322.21 128.27 315.15 135.34 316.13 136.32 322.21 130.24"/><rect class="cls-7" x="345.93" y="138.36" width="14.63" height="14.63" transform="translate(0.45 292.45) rotate(-45)"/><rect class="cls-8" x="348.25" y="140.69" width="9.99" height="9.99" transform="translate(0.45 292.45) rotate(-45)"/><polygon class="cls-9" points="353.25 140.59 359.32 146.66 360.31 145.68 353.25 138.62 346.19 145.68 347.17 146.66 353.25 140.59"/><rect class="cls-7" x="335.59" y="128.02" width="14.63" height="14.63" transform="translate(4.73 282.09) rotate(-45)"/><rect class="cls-8" x="337.91" y="130.34" width="9.99" height="9.99" transform="translate(4.74 282.11) rotate(-45)"/><polygon class="cls-9" points="342.9 130.24 348.98 136.32 349.96 135.34 342.9 128.27 335.84 135.34 336.83 136.32 342.9 130.24"/><polygon class="cls-7" points="363.57 145.68 373.91 156.03 373.91 135.33 363.57 145.68"/><polygon class="cls-8" points="366.85 145.68 373.91 152.74 373.91 138.62 366.85 145.68"/><polygon class="cls-9" points="366.85 145.68 367.84 146.67 373.91 140.59 373.91 138.62 366.85 145.68"/><rect class="cls-7" x="356.28" y="128.02" width="14.63" height="14.63" transform="translate(10.8 296.74) rotate(-45)"/><rect class="cls-8" x="358.6" y="130.34" width="9.99" height="9.99" transform="translate(10.8 296.74) rotate(-45)"/><polygon class="cls-9" points="363.59 130.24 369.67 136.32 370.65 135.34 363.59 128.27 356.53 135.34 357.52 136.32 363.59 130.24"/><polygon class="cls-7" points="167.23 156.03 167.23 176.72 177.57 166.37 167.23 156.03"/><polygon class="cls-8" points="167.23 159.31 167.23 173.43 174.29 166.37 167.23 159.31"/><polygon class="cls-9" points="174.29 166.37 167.23 159.31 167.23 161.28 173.3 167.36 174.29 166.37"/><rect class="cls-7" x="180.4" y="159.06" width="14.63" height="14.63" transform="translate(-62.66 181.47) rotate(-45)"/><rect class="cls-8" x="182.72" y="161.38" width="9.99" height="9.99" transform="translate(-62.66 181.46) rotate(-45)"/><polygon class="cls-9" points="187.72 161.28 193.79 167.36 194.78 166.37 187.72 159.31 180.66 166.37 181.64 167.36 187.72 161.28"/><rect class="cls-7" x="201.09" y="159.06" width="14.63" height="14.63" transform="translate(-56.6 196.1) rotate(-45)"/><rect class="cls-8" x="203.41" y="161.38" width="9.99" height="9.99" transform="translate(-56.6 196.1) rotate(-45)"/><polygon class="cls-9" points="208.41 161.28 214.48 167.36 215.47 166.37 208.41 159.31 201.35 166.37 202.33 167.36 208.41 161.28"/><rect class="cls-7" x="221.78" y="159.06" width="14.63" height="14.63" transform="translate(-50.54 210.73) rotate(-45)"/><rect class="cls-8" x="224.11" y="161.38" width="9.99" height="9.99" transform="translate(-50.54 210.75) rotate(-45)"/><polygon class="cls-9" points="229.1 161.28 235.18 167.36 236.16 166.37 229.1 159.31 222.04 166.37 223.02 167.36 229.1 161.28"/><rect class="cls-7" x="242.47" y="159.06" width="14.63" height="14.63" transform="translate(-44.48 225.36) rotate(-45)"/><rect class="cls-8" x="244.8" y="161.38" width="9.99" height="9.99" transform="translate(-44.48 225.36) rotate(-45)"/><polygon class="cls-9" points="249.79 161.28 255.87 167.36 256.85 166.37 249.79 159.31 242.73 166.37 243.71 167.36 249.79 161.28"/><rect class="cls-7" x="170.06" y="148.71" width="14.63" height="14.63" transform="translate(-58.38 171.13) rotate(-45)"/><rect class="cls-8" x="172.38" y="151.03" width="9.99" height="9.99" transform="translate(-58.38 171.12) rotate(-45)"/><polygon class="cls-9" points="177.37 150.94 183.45 157.01 184.43 156.03 177.37 148.97 170.31 156.03 171.29 157.01 177.37 150.94"/><rect class="cls-7" x="190.75" y="148.71" width="14.63" height="14.63" transform="translate(-52.31 185.76) rotate(-45)"/><rect class="cls-8" x="193.07" y="151.03" width="9.99" height="9.99" transform="translate(-52.32 185.75) rotate(-45)"/><polygon class="cls-9" points="198.06 150.94 204.14 157.01 205.12 156.03 198.06 148.97 191 156.03 191.99 157.01 198.06 150.94"/><rect class="cls-7" x="211.44" y="148.71" width="14.63" height="14.63" transform="translate(-46.25 200.39) rotate(-45)"/><rect class="cls-8" x="213.76" y="151.03" width="9.99" height="9.99" transform="translate(-46.26 200.38) rotate(-45)"/><polygon class="cls-9" points="218.75 150.94 224.83 157.01 225.81 156.03 218.75 148.97 211.69 156.03 212.68 157.01 218.75 150.94"/><rect class="cls-7" x="232.13" y="148.71" width="14.63" height="14.63" transform="translate(-40.19 215.03) rotate(-45)"/><rect class="cls-8" x="234.45" y="151.03" width="9.99" height="9.99" transform="translate(-40.2 215.01) rotate(-45)"/><polygon class="cls-9" points="239.44 150.94 245.52 157.01 246.51 156.03 239.44 148.97 232.38 156.03 233.37 157.01 239.44 150.94"/><rect class="cls-7" x="263.17" y="159.06" width="14.63" height="14.63" transform="translate(-38.42 239.99) rotate(-45)"/><rect class="cls-8" x="265.49" y="161.38" width="9.99" height="9.99" transform="translate(-38.42 239.99) rotate(-45)"/><polygon class="cls-9" points="270.48 161.28 276.56 167.36 277.54 166.37 270.48 159.31 263.42 166.37 264.41 167.36 270.48 161.28"/><rect class="cls-7" x="252.82" y="148.71" width="14.63" height="14.63" transform="translate(-34.13 229.66) rotate(-45)"/><rect class="cls-8" x="255.14" y="151.03" width="9.99" height="9.99" transform="translate(-34.14 229.64) rotate(-45)"/><polygon class="cls-9" points="260.14 150.94 266.21 157.01 267.2 156.03 260.14 148.97 253.07 156.03 254.06 157.01 260.14 150.94"/><rect class="cls-7" x="283.86" y="159.06" width="14.63" height="14.63" transform="translate(-32.36 254.62) rotate(-45)"/><rect class="cls-8" x="286.18" y="161.38" width="9.99" height="9.99" transform="translate(-32.36 254.62) rotate(-45)"/><polygon class="cls-9" points="291.17 161.28 297.25 167.36 298.24 166.37 291.17 159.31 284.11 166.37 285.1 167.36 291.17 161.28"/><rect class="cls-7" x="273.51" y="148.71" width="14.63" height="14.63" transform="translate(-28.07 244.29) rotate(-45)"/><rect class="cls-8" x="275.83" y="151.03" width="9.99" height="9.99" transform="translate(-28.07 244.27) rotate(-45)"/><polygon class="cls-9" points="280.83 150.94 286.9 157.01 287.89 156.03 280.83 148.97 273.77 156.03 274.75 157.01 280.83 150.94"/><rect class="cls-7" x="304.55" y="159.06" width="14.63" height="14.63" transform="translate(-26.3 269.25) rotate(-45)"/><rect class="cls-8" x="306.87" y="161.38" width="9.99" height="9.99" transform="translate(-26.3 269.25) rotate(-45)"/><polygon class="cls-9" points="311.87 161.28 317.94 167.36 318.93 166.37 311.87 159.31 304.8 166.37 305.79 167.36 311.87 161.28"/><rect class="cls-7" x="294.2" y="148.71" width="14.63" height="14.63" transform="translate(-22.01 258.91) rotate(-45)"/><rect class="cls-8" x="296.53" y="151.03" width="9.99" height="9.99" transform="translate(-22.01 258.9) rotate(-45)"/><polygon class="cls-9" points="301.52 150.94 307.59 157.01 308.58 156.03 301.52 148.97 294.46 156.03 295.44 157.01 301.52 150.94"/><rect class="cls-7" x="325.24" y="159.06" width="14.63" height="14.63" transform="translate(-20.24 283.88) rotate(-45)"/><rect class="cls-8" x="327.56" y="161.38" width="9.99" height="9.99" transform="translate(-20.24 283.88) rotate(-45)"/><polygon class="cls-9" points="332.56 161.28 338.63 167.36 339.62 166.37 332.56 159.31 325.5 166.37 326.48 167.36 332.56 161.28"/><rect class="cls-7" x="314.9" y="148.71" width="14.63" height="14.63" transform="translate(-15.95 273.55) rotate(-45)"/><rect class="cls-8" x="317.22" y="151.03" width="9.99" height="9.99" transform="translate(-15.95 273.54) rotate(-45)"/><polygon class="cls-9" points="322.21 150.94 328.29 157.01 329.27 156.03 322.21 148.97 315.15 156.03 316.13 157.01 322.21 150.94"/><rect class="cls-7" x="345.93" y="159.06" width="14.63" height="14.63" transform="translate(-14.18 298.51) rotate(-45)"/><rect class="cls-8" x="348.25" y="161.38" width="9.99" height="9.99" transform="translate(-14.18 298.51) rotate(-45)"/><polygon class="cls-9" points="353.25 161.28 359.32 167.36 360.31 166.37 353.25 159.31 346.19 166.37 347.17 167.36 353.25 161.28"/><rect class="cls-7" x="335.59" y="148.71" width="14.63" height="14.63" transform="translate(-9.89 288.17) rotate(-45)"/><rect class="cls-8" x="337.91" y="151.03" width="9.99" height="9.99" transform="translate(-9.89 288.17) rotate(-45)"/><polygon class="cls-9" points="342.9 150.94 348.98 157.01 349.96 156.03 342.9 148.97 335.84 156.03 336.83 157.01 342.9 150.94"/><polygon class="cls-7" points="363.57 166.37 373.91 176.72 373.91 156.03 363.57 166.37"/><polygon class="cls-8" points="366.85 166.37 373.91 173.43 373.91 159.31 366.85 166.37"/><polygon class="cls-9" points="366.85 166.37 367.84 167.36 373.91 161.28 373.91 159.31 366.85 166.37"/><rect class="cls-7" x="356.28" y="148.71" width="14.63" height="14.63" transform="translate(-3.83 302.82) rotate(-45)"/><rect class="cls-8" x="358.6" y="151.03" width="9.99" height="9.99" transform="translate(-3.83 302.8) rotate(-45)"/><polygon class="cls-9" points="363.59 150.94 369.67 157.01 370.65 156.03 363.59 148.97 356.53 156.03 357.52 157.01 363.59 150.94"/><polygon class="cls-7" points="167.23 176.72 167.23 197.41 177.57 187.06 167.23 176.72"/><polygon class="cls-8" points="167.23 180 167.23 194.13 174.29 187.06 167.23 180"/><polygon class="cls-9" points="174.29 187.06 167.23 180 167.23 181.97 173.3 188.05 174.29 187.06"/><rect class="cls-7" x="180.4" y="179.75" width="14.63" height="14.63" transform="translate(-77.29 187.53) rotate(-45)"/><rect class="cls-8" x="182.72" y="182.07" width="9.99" height="9.99" transform="translate(-77.29 187.53) rotate(-45)"/><polygon class="cls-9" points="187.72 181.97 193.79 188.05 194.78 187.06 187.72 180 180.66 187.06 181.64 188.05 187.72 181.97"/><rect class="cls-7" x="201.09" y="179.75" width="14.63" height="14.63" transform="translate(-71.23 202.16) rotate(-45)"/><rect class="cls-8" x="203.41" y="182.07" width="9.99" height="9.99" transform="translate(-71.23 202.16) rotate(-45)"/><polygon class="cls-9" points="208.41 181.97 214.48 188.05 215.47 187.06 208.41 180 201.35 187.06 202.33 188.05 208.41 181.97"/><rect class="cls-7" x="221.78" y="179.75" width="14.63" height="14.63" transform="translate(-65.17 216.79) rotate(-45)"/><rect class="cls-8" x="224.11" y="182.07" width="9.99" height="9.99" transform="translate(-65.17 216.81) rotate(-45)"/><polygon class="cls-9" points="229.1 181.97 235.18 188.05 236.16 187.06 229.1 180 222.04 187.06 223.02 188.05 229.1 181.97"/><rect class="cls-7" x="242.47" y="179.75" width="14.63" height="14.63" transform="translate(-59.11 231.42) rotate(-45)"/><rect class="cls-8" x="244.8" y="182.07" width="9.99" height="9.99" transform="translate(-59.11 231.42) rotate(-45)"/><polygon class="cls-9" points="249.79 181.97 255.87 188.05 256.85 187.06 249.79 180 242.73 187.06 243.71 188.05 249.79 181.97"/><rect class="cls-7" x="170.06" y="169.4" width="14.63" height="14.63" transform="translate(-73.01 177.18) rotate(-45)"/><rect class="cls-8" x="172.38" y="171.72" width="9.99" height="9.99" transform="translate(-73.01 177.18) rotate(-45)"/><polygon class="cls-9" points="177.37 171.63 183.45 177.7 184.43 176.72 177.37 169.66 170.31 176.72 171.29 177.7 177.37 171.63"/><rect class="cls-7" x="190.75" y="169.4" width="14.63" height="14.63" transform="translate(-66.95 191.81) rotate(-45)"/><rect class="cls-8" x="193.07" y="171.72" width="9.99" height="9.99" transform="translate(-66.95 191.81) rotate(-45)"/><polygon class="cls-9" points="198.06 171.63 204.14 177.7 205.12 176.72 198.06 169.66 191 176.72 191.99 177.7 198.06 171.63"/><rect class="cls-7" x="211.44" y="169.4" width="14.63" height="14.63" transform="translate(-60.89 206.44) rotate(-45)"/><rect class="cls-8" x="213.76" y="171.72" width="9.99" height="9.99" transform="translate(-60.89 206.44) rotate(-45)"/><polygon class="cls-9" points="218.75 171.63 224.83 177.7 225.81 176.72 218.75 169.66 211.69 176.72 212.68 177.7 218.75 171.63"/><rect class="cls-7" x="232.13" y="169.4" width="14.63" height="14.63" transform="translate(-54.83 221.07) rotate(-45)"/><rect class="cls-8" x="234.45" y="171.72" width="9.99" height="9.99" transform="translate(-54.83 221.07) rotate(-45)"/><polygon class="cls-9" points="239.44 171.63 245.52 177.7 246.51 176.72 239.44 169.66 232.38 176.72 233.37 177.7 239.44 171.63"/><rect class="cls-7" x="263.17" y="179.75" width="14.63" height="14.63" transform="translate(-53.05 246.05) rotate(-45)"/><rect class="cls-8" x="265.49" y="182.07" width="9.99" height="9.99" transform="translate(-53.05 246.05) rotate(-45)"/><polygon class="cls-9" points="270.48 181.97 276.56 188.05 277.54 187.06 270.48 180 263.42 187.06 264.41 188.05 270.48 181.97"/><rect class="cls-7" x="252.82" y="169.4" width="14.63" height="14.63" transform="translate(-48.77 235.7) rotate(-45)"/><rect class="cls-8" x="255.14" y="171.72" width="9.99" height="9.99" transform="translate(-48.77 235.7) rotate(-45)"/><polygon class="cls-9" points="260.14 171.63 266.21 177.7 267.2 176.72 260.14 169.66 253.07 176.72 254.06 177.7 260.14 171.63"/><rect class="cls-7" x="283.86" y="179.75" width="14.63" height="14.63" transform="translate(-46.99 260.68) rotate(-45)"/><rect class="cls-8" x="286.18" y="182.07" width="9.99" height="9.99" transform="translate(-46.99 260.68) rotate(-45)"/><polygon class="cls-9" points="291.17 181.97 297.25 188.05 298.24 187.06 291.17 180 284.11 187.06 285.1 188.05 291.17 181.97"/><rect class="cls-7" x="273.51" y="169.4" width="14.63" height="14.63" transform="translate(-42.71 250.34) rotate(-45)"/><rect class="cls-8" x="275.83" y="171.72" width="9.99" height="9.99" transform="translate(-42.71 250.33) rotate(-45)"/><polygon class="cls-9" points="280.83 171.63 286.9 177.7 287.89 176.72 280.83 169.66 273.77 176.72 274.75 177.7 280.83 171.63"/><rect class="cls-7" x="304.55" y="179.75" width="14.63" height="14.63" transform="translate(-40.93 275.31) rotate(-45)"/><rect class="cls-8" x="306.87" y="182.07" width="9.99" height="9.99" transform="translate(-40.93 275.31) rotate(-45)"/><polygon class="cls-9" points="311.87 181.97 317.94 188.05 318.93 187.06 311.87 180 304.8 187.06 305.79 188.05 311.87 181.97"/><rect class="cls-7" x="294.2" y="169.4" width="14.63" height="14.63" transform="translate(-36.65 264.95) rotate(-45)"/><rect class="cls-8" x="296.53" y="171.72" width="9.99" height="9.99" transform="translate(-36.65 264.97) rotate(-45)"/><polygon class="cls-9" points="301.52 171.63 307.59 177.7 308.58 176.72 301.52 169.66 294.46 176.72 295.44 177.7 301.52 171.63"/><rect class="cls-7" x="325.24" y="179.75" width="14.63" height="14.63" transform="translate(-34.87 289.94) rotate(-45)"/><rect class="cls-8" x="327.56" y="182.07" width="9.99" height="9.99" transform="translate(-34.87 289.94) rotate(-45)"/><polygon class="cls-9" points="332.56 181.97 338.63 188.05 339.62 187.06 332.56 180 325.5 187.06 326.48 188.05 332.56 181.97"/><rect class="cls-7" x="314.89" y="169.4" width="14.63" height="14.63" transform="translate(-30.58 279.6) rotate(-45)"/><rect class="cls-8" x="317.22" y="171.72" width="9.99" height="9.99" transform="translate(-30.58 279.6) rotate(-45)"/><polygon class="cls-9" points="322.21 171.63 328.29 177.7 329.27 176.72 322.21 169.66 315.15 176.72 316.13 177.7 322.21 171.63"/><rect class="cls-7" x="345.93" y="179.75" width="14.63" height="14.63" transform="translate(-28.81 304.57) rotate(-45)"/><rect class="cls-8" x="348.25" y="182.07" width="9.99" height="9.99" transform="translate(-28.81 304.57) rotate(-45)"/><polygon class="cls-9" points="353.25 181.97 359.32 188.05 360.31 187.06 353.25 180 346.19 187.06 347.17 188.05 353.25 181.97"/><rect class="cls-7" x="335.59" y="169.4" width="14.63" height="14.63" transform="translate(-24.53 294.21) rotate(-45)"/><rect class="cls-8" x="337.91" y="171.72" width="9.99" height="9.99" transform="translate(-24.52 294.23) rotate(-45)"/><polygon class="cls-9" points="342.9 171.63 348.98 177.7 349.96 176.72 342.9 169.66 335.84 176.72 336.83 177.7 342.9 171.63"/><polygon class="cls-7" points="363.57 187.06 373.91 197.41 373.91 176.72 363.57 187.06"/><polygon class="cls-8" points="366.85 187.06 373.91 194.12 373.91 180 366.85 187.06"/><polygon class="cls-9" points="366.85 187.06 367.84 188.05 373.91 181.97 373.91 180 366.85 187.06"/><rect class="cls-7" x="356.28" y="169.4" width="14.63" height="14.63" transform="translate(-18.46 308.86) rotate(-45)"/><rect class="cls-8" x="358.6" y="171.72" width="9.99" height="9.99" transform="translate(-18.46 308.86) rotate(-45)"/><polygon class="cls-9" points="363.59 171.63 369.67 177.7 370.65 176.72 363.59 169.66 356.53 176.72 357.52 177.7 363.59 171.63"/><polygon class="cls-7" points="167.23 197.41 167.23 218.1 177.57 207.75 167.23 197.41"/><polygon class="cls-8" points="167.23 200.69 167.23 214.81 174.29 207.75 167.23 200.69"/><polygon class="cls-9" points="174.29 207.75 167.23 200.69 167.23 202.66 173.3 208.74 174.29 207.75"/><rect class="cls-7" x="180.4" y="200.44" width="14.63" height="14.63" transform="translate(-91.92 193.59) rotate(-45)"/><rect class="cls-8" x="182.72" y="202.76" width="9.99" height="9.99" transform="translate(-91.92 193.59) rotate(-45)"/><polygon class="cls-9" points="187.72 202.66 193.79 208.74 194.78 207.75 187.72 200.69 180.66 207.75 181.64 208.74 187.72 202.66"/><rect class="cls-7" x="201.09" y="200.44" width="14.63" height="14.63" transform="translate(-85.86 208.22) rotate(-45)"/><rect class="cls-8" x="203.41" y="202.76" width="9.99" height="9.99" transform="translate(-85.86 208.22) rotate(-45)"/><polygon class="cls-9" points="208.41 202.66 214.48 208.74 215.47 207.75 208.41 200.69 201.35 207.75 202.33 208.74 208.41 202.66"/><rect class="cls-7" x="221.78" y="200.44" width="14.63" height="14.63" transform="translate(-79.8 222.85) rotate(-45)"/><rect class="cls-8" x="224.11" y="202.76" width="9.99" height="9.99" transform="translate(-79.8 222.87) rotate(-45)"/><polygon class="cls-9" points="229.1 202.66 235.18 208.74 236.16 207.75 229.1 200.69 222.04 207.75 223.02 208.74 229.1 202.66"/><rect class="cls-7" x="242.47" y="200.44" width="14.63" height="14.63" transform="translate(-73.74 237.48) rotate(-45)"/><rect class="cls-8" x="244.8" y="202.76" width="9.99" height="9.99" transform="translate(-73.74 237.48) rotate(-45)"/><polygon class="cls-9" points="249.79 202.66 255.87 208.74 256.85 207.75 249.79 200.69 242.73 207.75 243.71 208.74 249.79 202.66"/><rect class="cls-7" x="170.06" y="190.09" width="14.63" height="14.63" transform="translate(-87.64 183.25) rotate(-45)"/><rect class="cls-8" x="172.38" y="192.42" width="9.99" height="9.99" transform="translate(-87.64 183.24) rotate(-45)"/><polygon class="cls-9" points="177.37 192.32 183.45 198.39 184.43 197.41 177.37 190.35 170.31 197.41 171.29 198.39 177.37 192.32"/><rect class="cls-7" x="190.75" y="190.09" width="14.63" height="14.63" transform="translate(-81.58 197.88) rotate(-45)"/><rect class="cls-8" x="193.07" y="192.42" width="9.99" height="9.99" transform="translate(-81.58 197.87) rotate(-45)"/><polygon class="cls-9" points="198.06 192.32 204.14 198.39 205.12 197.41 198.06 190.35 191 197.41 191.99 198.39 198.06 192.32"/><rect class="cls-7" x="211.44" y="190.09" width="14.63" height="14.63" transform="translate(-75.52 212.52) rotate(-45)"/><rect class="cls-8" x="213.76" y="192.42" width="9.99" height="9.99" transform="translate(-75.52 212.5) rotate(-45)"/><polygon class="cls-9" points="218.75 192.32 224.83 198.39 225.81 197.41 218.75 190.35 211.69 197.41 212.68 198.39 218.75 192.32"/><rect class="cls-7" x="232.13" y="190.09" width="14.63" height="14.63" transform="translate(-69.46 227.15) rotate(-45)"/><rect class="cls-8" x="234.45" y="192.42" width="9.99" height="9.99" transform="translate(-69.46 227.13) rotate(-45)"/><polygon class="cls-9" points="239.44 192.32 245.52 198.39 246.51 197.41 239.44 190.35 232.38 197.41 233.37 198.39 239.44 192.32"/><rect class="cls-7" x="263.17" y="200.44" width="14.63" height="14.63" transform="translate(-67.68 252.11) rotate(-45)"/><rect class="cls-8" x="265.49" y="202.76" width="9.99" height="9.99" transform="translate(-67.68 252.11) rotate(-45)"/><polygon class="cls-9" points="270.48 202.66 276.56 208.74 277.54 207.75 270.48 200.69 263.42 207.75 264.41 208.74 270.48 202.66"/><rect class="cls-7" x="252.82" y="190.09" width="14.63" height="14.63" transform="translate(-63.39 241.78) rotate(-45)"/><rect class="cls-8" x="255.14" y="192.42" width="9.99" height="9.99" transform="translate(-63.4 241.76) rotate(-45)"/><polygon class="cls-9" points="260.14 192.32 266.21 198.39 267.2 197.41 260.14 190.35 253.07 197.41 254.06 198.39 260.14 192.32"/><rect class="cls-7" x="283.86" y="200.44" width="14.63" height="14.63" transform="translate(-61.62 266.74) rotate(-45)"/><rect class="cls-8" x="286.18" y="202.76" width="9.99" height="9.99" transform="translate(-61.62 266.74) rotate(-45)"/><polygon class="cls-9" points="291.17 202.66 297.25 208.74 298.24 207.75 291.17 200.69 284.11 207.75 285.1 208.74 291.17 202.66"/><rect class="cls-7" x="273.51" y="190.09" width="14.63" height="14.63" transform="translate(-57.33 256.41) rotate(-45)"/><rect class="cls-8" x="275.83" y="192.42" width="9.99" height="9.99" transform="translate(-57.34 256.4) rotate(-45)"/><polygon class="cls-9" points="280.83 192.32 286.9 198.39 287.89 197.41 280.83 190.35 273.77 197.41 274.75 198.39 280.83 192.32"/><rect class="cls-7" x="304.55" y="200.44" width="14.63" height="14.63" transform="translate(-55.56 281.37) rotate(-45)"/><rect class="cls-8" x="306.87" y="202.76" width="9.99" height="9.99" transform="translate(-55.56 281.37) rotate(-45)"/><polygon class="cls-9" points="311.87 202.66 317.94 208.74 318.93 207.75 311.87 200.69 304.8 207.75 305.79 208.74 311.87 202.66"/><rect class="cls-7" x="294.2" y="190.09" width="14.63" height="14.63" transform="translate(-51.28 271.03) rotate(-45)"/><rect class="cls-8" x="296.53" y="192.42" width="9.99" height="9.99" transform="translate(-51.28 271.03) rotate(-45)"/><polygon class="cls-9" points="301.52 192.32 307.59 198.39 308.58 197.41 301.52 190.35 294.46 197.41 295.44 198.39 301.52 192.32"/><rect class="cls-7" x="325.24" y="200.44" width="14.63" height="14.63" transform="translate(-49.5 296) rotate(-45)"/><rect class="cls-8" x="327.56" y="202.76" width="9.99" height="9.99" transform="translate(-49.5 296) rotate(-45)"/><polygon class="cls-9" points="332.56 202.66 338.63 208.74 339.62 207.75 332.56 200.69 325.5 207.75 326.48 208.74 332.56 202.66"/><rect class="cls-7" x="314.9" y="190.09" width="14.63" height="14.63" transform="translate(-45.21 285.68) rotate(-45)"/><rect class="cls-8" x="317.22" y="192.42" width="9.99" height="9.99" transform="translate(-45.22 285.66) rotate(-45)"/><polygon class="cls-9" points="322.21 192.32 328.29 198.39 329.27 197.41 322.21 190.35 315.15 197.41 316.13 198.39 322.21 192.32"/><rect class="cls-7" x="345.93" y="200.44" width="14.63" height="14.63" transform="translate(-43.44 310.63) rotate(-45)"/><rect class="cls-8" x="348.25" y="202.76" width="9.99" height="9.99" transform="translate(-43.44 310.63) rotate(-45)"/><polygon class="cls-9" points="353.25 202.66 359.32 208.74 360.31 207.75 353.25 200.69 346.19 207.75 347.17 208.74 353.25 202.66"/><rect class="cls-7" x="335.59" y="190.09" width="14.63" height="14.63" transform="translate(-39.16 300.29) rotate(-45)"/><rect class="cls-8" x="337.91" y="192.42" width="9.99" height="9.99" transform="translate(-39.16 300.29) rotate(-45)"/><polygon class="cls-9" points="342.9 192.32 348.98 198.39 349.96 197.41 342.9 190.35 335.84 197.41 336.83 198.39 342.9 192.32"/><polygon class="cls-7" points="363.57 207.75 373.91 218.1 373.91 197.41 363.57 207.75"/><polygon class="cls-8" points="366.85 207.75 373.91 214.81 373.91 200.69 366.85 207.75"/><polygon class="cls-9" points="366.85 207.75 367.84 208.74 373.91 202.66 373.91 200.69 366.85 207.75"/><rect class="cls-7" x="356.28" y="190.09" width="14.63" height="14.63" transform="translate(-33.09 314.94) rotate(-45)"/><rect class="cls-8" x="358.6" y="192.42" width="9.99" height="9.99" transform="translate(-33.1 314.92) rotate(-45)"/><polygon class="cls-9" points="363.59 192.32 369.67 198.39 370.65 197.41 363.59 190.35 356.53 197.41 357.52 198.39 363.59 192.32"/><polygon class="cls-7" points="167.23 218.1 167.23 238.79 177.57 228.45 167.23 218.1"/><polygon class="cls-8" points="167.23 221.38 167.23 235.51 174.29 228.45 167.23 221.38"/><polygon class="cls-9" points="174.29 228.45 167.23 221.38 167.23 223.35 173.3 229.43 174.29 228.45"/><rect class="cls-7" x="180.4" y="221.13" width="14.63" height="14.63" transform="translate(-106.56 199.66) rotate(-45)"/><rect class="cls-8" x="182.72" y="223.45" width="9.99" height="9.99" transform="translate(-106.55 199.65) rotate(-45)"/><polygon class="cls-9" points="187.72 223.35 193.79 229.43 194.78 228.45 187.72 221.38 180.66 228.45 181.64 229.43 187.72 223.35"/><rect class="cls-7" x="201.09" y="221.13" width="14.63" height="14.63" transform="translate(-100.49 214.29) rotate(-45)"/><rect class="cls-8" x="203.41" y="223.45" width="9.99" height="9.99" transform="translate(-100.49 214.28) rotate(-45)"/><polygon class="cls-9" points="208.41 223.35 214.48 229.43 215.47 228.45 208.41 221.38 201.35 228.45 202.33 229.43 208.41 223.35"/><rect class="cls-7" x="221.78" y="221.13" width="14.63" height="14.63" transform="translate(-94.43 228.92) rotate(-45)"/><rect class="cls-8" x="224.11" y="223.45" width="9.99" height="9.99" transform="translate(-94.43 228.93) rotate(-45)"/><polygon class="cls-9" points="229.1 223.35 235.18 229.43 236.16 228.45 229.1 221.38 222.04 228.45 223.02 229.43 229.1 223.35"/><rect class="cls-7" x="242.47" y="221.13" width="14.63" height="14.63" transform="translate(-88.37 243.56) rotate(-45)"/><rect class="cls-8" x="244.8" y="223.45" width="9.99" height="9.99" transform="translate(-88.37 243.54) rotate(-45)"/><polygon class="cls-9" points="249.79 223.35 255.87 229.43 256.85 228.45 249.79 221.38 242.73 228.45 243.71 229.43 249.79 223.35"/><rect class="cls-7" x="170.06" y="210.78" width="14.63" height="14.63" transform="translate(-102.27 189.3) rotate(-45)"/><rect class="cls-8" x="172.38" y="213.11" width="9.99" height="9.99" transform="translate(-102.27 189.3) rotate(-45)"/><polygon class="cls-9" points="177.37 213.01 183.45 219.09 184.43 218.1 177.37 211.04 170.31 218.1 171.29 219.09 177.37 213.01"/><rect class="cls-7" x="190.75" y="210.78" width="14.63" height="14.63" transform="translate(-96.21 203.93) rotate(-45)"/><rect class="cls-8" x="193.07" y="213.11" width="9.99" height="9.99" transform="translate(-96.21 203.93) rotate(-45)"/><polygon class="cls-9" points="198.06 213.01 204.14 219.09 205.12 218.1 198.06 211.04 191 218.1 191.99 219.09 198.06 213.01"/><rect class="cls-7" x="211.44" y="210.78" width="14.63" height="14.63" transform="translate(-90.15 218.56) rotate(-45)"/><rect class="cls-8" x="213.76" y="213.11" width="9.99" height="9.99" transform="translate(-90.15 218.56) rotate(-45)"/><polygon class="cls-9" points="218.75 213.01 224.83 219.09 225.81 218.1 218.75 211.04 211.69 218.1 212.68 219.09 218.75 213.01"/><rect class="cls-7" x="232.13" y="210.78" width="14.63" height="14.63" transform="translate(-84.09 233.19) rotate(-45)"/><rect class="cls-8" x="234.45" y="213.11" width="9.99" height="9.99" transform="translate(-84.09 233.19) rotate(-45)"/><polygon class="cls-9" points="239.44 213.01 245.52 219.09 246.51 218.1 239.44 211.04 232.38 218.1 233.37 219.09 239.44 213.01"/><rect class="cls-7" x="263.17" y="221.13" width="14.63" height="14.63" transform="translate(-82.31 258.19) rotate(-45)"/><rect class="cls-8" x="265.49" y="223.45" width="9.99" height="9.99" transform="translate(-82.31 258.17) rotate(-45)"/><polygon class="cls-9" points="270.48 223.35 276.56 229.43 277.54 228.45 270.48 221.38 263.42 228.45 264.41 229.43 270.48 223.35"/><rect class="cls-7" x="252.82" y="210.78" width="14.63" height="14.63" transform="translate(-78.03 247.83) rotate(-45)"/><rect class="cls-8" x="255.14" y="213.11" width="9.99" height="9.99" transform="translate(-78.03 247.82) rotate(-45)"/><polygon class="cls-9" points="260.14 213.01 266.21 219.09 267.2 218.1 260.14 211.04 253.07 218.1 254.06 219.09 260.14 213.01"/><rect class="cls-7" x="283.86" y="221.13" width="14.63" height="14.63" transform="translate(-76.25 272.82) rotate(-45)"/><rect class="cls-8" x="286.18" y="223.45" width="9.99" height="9.99" transform="translate(-76.25 272.8) rotate(-45)"/><polygon class="cls-9" points="291.17 223.35 297.25 229.43 298.24 228.45 291.17 221.38 284.11 228.45 285.1 229.43 291.17 223.35"/><rect class="cls-7" x="273.51" y="210.78" width="14.63" height="14.63" transform="translate(-71.97 262.46) rotate(-45)"/><rect class="cls-8" x="275.83" y="213.11" width="9.99" height="9.99" transform="translate(-71.97 262.46) rotate(-45)"/><polygon class="cls-9" points="280.83 213.01 286.9 219.09 287.89 218.1 280.83 211.04 273.77 218.1 274.75 219.09 280.83 213.01"/><rect class="cls-7" x="304.55" y="221.13" width="14.63" height="14.63" transform="translate(-70.19 287.45) rotate(-45)"/><rect class="cls-8" x="306.87" y="223.45" width="9.99" height="9.99" transform="translate(-70.19 287.43) rotate(-45)"/><polygon class="cls-9" points="311.87 223.35 317.94 229.43 318.93 228.45 311.87 221.38 304.8 228.45 305.79 229.43 311.87 223.35"/><rect class="cls-7" x="294.2" y="210.78" width="14.63" height="14.63" transform="translate(-65.91 277.07) rotate(-45)"/><rect class="cls-8" x="296.53" y="213.11" width="9.99" height="9.99" transform="translate(-65.91 277.09) rotate(-45)"/><polygon class="cls-9" points="301.52 213.01 307.59 219.09 308.58 218.1 301.52 211.04 294.46 218.1 295.44 219.09 301.52 213.01"/><rect class="cls-7" x="325.24" y="221.13" width="14.63" height="14.63" transform="translate(-64.13 302.08) rotate(-45)"/><rect class="cls-8" x="327.56" y="223.45" width="9.99" height="9.99" transform="translate(-64.13 302.06) rotate(-45)"/><polygon class="cls-9" points="332.56 223.35 338.63 229.43 339.62 228.45 332.56 221.38 325.5 228.45 326.48 229.43 332.56 223.35"/><rect class="cls-7" x="314.89" y="210.78" width="14.63" height="14.63" transform="translate(-59.85 291.72) rotate(-45)"/><rect class="cls-8" x="317.22" y="213.11" width="9.99" height="9.99" transform="translate(-59.85 291.72) rotate(-45)"/><polygon class="cls-9" points="322.21 213.01 328.29 219.09 329.27 218.1 322.21 211.04 315.15 218.1 316.13 219.09 322.21 213.01"/><rect class="cls-7" x="345.93" y="221.13" width="14.63" height="14.63" transform="translate(-58.07 316.71) rotate(-45)"/><rect class="cls-8" x="348.25" y="223.45" width="9.99" height="9.99" transform="translate(-58.07 316.69) rotate(-45)"/><polygon class="cls-9" points="353.25 223.35 359.32 229.43 360.31 228.45 353.25 221.38 346.19 228.45 347.17 229.43 353.25 223.35"/><rect class="cls-7" x="335.59" y="210.78" width="14.63" height="14.63" transform="translate(-53.79 306.33) rotate(-45)"/><rect class="cls-8" x="337.91" y="213.11" width="9.99" height="9.99" transform="translate(-53.79 306.35) rotate(-45)"/><polygon class="cls-9" points="342.9 213.01 348.98 219.09 349.96 218.1 342.9 211.04 335.84 218.1 336.83 219.09 342.9 213.01"/><polygon class="cls-7" points="363.57 228.45 373.91 238.79 373.91 218.1 363.57 228.45"/><polygon class="cls-8" points="366.85 228.45 373.91 235.51 373.91 221.38 366.85 228.45"/><polygon class="cls-9" points="366.85 228.45 367.84 229.43 373.91 223.35 373.91 221.38 366.85 228.45"/><rect class="cls-7" x="356.28" y="210.78" width="14.63" height="14.63" transform="translate(-47.73 320.98) rotate(-45)"/><rect class="cls-8" x="358.6" y="213.11" width="9.99" height="9.99" transform="translate(-47.73 320.98) rotate(-45)"/><polygon class="cls-9" points="363.59 213.01 369.67 219.09 370.65 218.1 363.59 211.04 356.53 218.1 357.52 219.09 363.59 213.01"/><polygon class="cls-7" points="167.23 249.17 177.57 249.17 167.23 238.83 167.23 249.17"/><polygon class="cls-8" points="167.23 249.17 174.29 249.17 167.23 242.11 167.23 249.17"/><polygon class="cls-9" points="167.23 244.08 172.32 249.17 174.29 249.17 167.23 242.11 167.23 244.08"/><polygon class="cls-7" points="177.37 249.17 198.06 249.17 187.72 238.83 177.37 249.17"/><polygon class="cls-8" points="180.66 249.17 194.78 249.17 187.72 242.11 180.66 249.17"/><polygon class="cls-9" points="180.66 249.17 182.63 249.17 187.72 244.08 192.81 249.17 194.78 249.17 187.72 242.11 180.66 249.17"/><polygon class="cls-7" points="198.06 249.17 218.75 249.17 208.41 238.83 198.06 249.17"/><polygon class="cls-8" points="201.35 249.17 215.47 249.17 208.41 242.11 201.35 249.17"/><polygon class="cls-9" points="201.35 249.17 203.32 249.17 208.41 244.08 213.5 249.17 215.47 249.17 208.41 242.11 201.35 249.17"/><polygon class="cls-7" points="218.75 249.17 239.44 249.17 229.1 238.83 218.75 249.17"/><polygon class="cls-8" points="222.04 249.17 236.16 249.17 229.1 242.11 222.04 249.17"/><polygon class="cls-9" points="222.04 249.17 224.01 249.17 229.1 244.08 234.19 249.17 236.16 249.17 229.1 242.11 222.04 249.17"/><polygon class="cls-7" points="239.44 249.17 260.14 249.17 249.79 238.83 239.44 249.17"/><polygon class="cls-8" points="242.73 249.17 256.85 249.17 249.79 242.11 242.73 249.17"/><polygon class="cls-9" points="242.73 249.17 244.7 249.17 249.79 244.08 254.88 249.17 256.85 249.17 249.79 242.11 242.73 249.17"/><rect class="cls-7" x="170.06" y="231.48" width="14.63" height="14.63" transform="translate(-116.9 195.36) rotate(-45)"/><rect class="cls-8" x="172.38" y="233.8" width="9.99" height="9.99" transform="translate(-116.9 195.36) rotate(-45)"/><polygon class="cls-9" points="177.37 233.7 183.45 239.78 184.43 238.79 177.37 231.73 170.31 238.79 171.29 239.78 177.37 233.7"/><rect class="cls-7" x="190.75" y="231.48" width="14.63" height="14.63" transform="translate(-110.84 209.99) rotate(-45)"/><rect class="cls-8" x="193.07" y="233.8" width="9.99" height="9.99" transform="translate(-110.84 209.99) rotate(-45)"/><polygon class="cls-9" points="198.06 233.7 204.14 239.78 205.12 238.79 198.06 231.73 191 238.79 191.99 239.78 198.06 233.7"/><rect class="cls-7" x="211.44" y="231.48" width="14.63" height="14.63" transform="translate(-104.78 224.62) rotate(-45)"/><rect class="cls-8" x="213.76" y="233.8" width="9.99" height="9.99" transform="translate(-104.78 224.62) rotate(-45)"/><polygon class="cls-9" points="218.75 233.7 224.83 239.78 225.81 238.79 218.75 231.73 211.69 238.79 212.68 239.78 218.75 233.7"/><rect class="cls-7" x="232.13" y="231.48" width="14.63" height="14.63" transform="translate(-98.72 239.25) rotate(-45)"/><rect class="cls-8" x="234.45" y="233.8" width="9.99" height="9.99" transform="translate(-98.72 239.25) rotate(-45)"/><polygon class="cls-9" points="239.44 233.7 245.52 239.78 246.51 238.79 239.44 231.73 232.38 238.79 233.37 239.78 239.44 233.7"/><polygon class="cls-7" points="260.14 249.17 280.83 249.17 270.48 238.83 260.14 249.17"/><polygon class="cls-8" points="263.42 249.17 277.54 249.17 270.48 242.11 263.42 249.17"/><polygon class="cls-9" points="263.42 249.17 265.39 249.17 270.48 244.08 275.57 249.17 277.54 249.17 270.48 242.11 263.42 249.17"/><rect class="cls-7" x="252.82" y="231.48" width="14.63" height="14.63" transform="translate(-92.66 253.89) rotate(-45)"/><rect class="cls-8" x="255.14" y="233.8" width="9.99" height="9.99" transform="translate(-92.66 253.88) rotate(-45)"/><polygon class="cls-9" points="260.14 233.7 266.21 239.78 267.2 238.79 260.14 231.73 253.07 238.79 254.06 239.78 260.14 233.7"/><polygon class="cls-7" points="280.83 249.17 301.52 249.17 291.17 238.83 280.83 249.17"/><polygon class="cls-8" points="284.11 249.17 298.24 249.17 291.17 242.11 284.11 249.17"/><polygon class="cls-9" points="284.11 249.17 286.08 249.17 291.17 244.08 296.26 249.17 298.24 249.17 291.17 242.11 284.11 249.17"/><rect class="cls-7" x="273.51" y="231.48" width="14.63" height="14.63" transform="translate(-86.6 268.52) rotate(-45)"/><rect class="cls-8" x="275.83" y="233.8" width="9.99" height="9.99" transform="translate(-86.6 268.52) rotate(-45)"/><polygon class="cls-9" points="280.83 233.7 286.9 239.78 287.89 238.79 280.83 231.73 273.77 238.79 274.75 239.78 280.83 233.7"/><polygon class="cls-7" points="301.52 249.17 322.21 249.17 311.86 238.83 301.52 249.17"/><polygon class="cls-8" points="304.8 249.17 318.93 249.17 311.87 242.11 304.8 249.17"/><polygon class="cls-9" points="304.8 249.17 306.77 249.17 311.87 244.08 316.95 249.17 318.93 249.17 311.87 242.11 304.8 249.17"/><rect class="cls-7" x="294.2" y="231.48" width="14.63" height="14.63" transform="translate(-80.54 283.13) rotate(-45)"/><rect class="cls-8" x="296.53" y="233.8" width="9.99" height="9.99" transform="translate(-80.54 283.15) rotate(-45)"/><polygon class="cls-9" points="301.52 233.7 307.59 239.78 308.58 238.79 301.52 231.73 294.46 238.79 295.44 239.78 301.52 233.7"/><polygon class="cls-7" points="322.21 249.17 342.9 249.17 332.56 238.83 322.21 249.17"/><polygon class="cls-8" points="325.5 249.17 339.62 249.17 332.56 242.11 325.5 249.17"/><polygon class="cls-9" points="325.5 249.17 327.46 249.17 332.56 244.08 337.65 249.17 339.62 249.17 332.56 242.11 325.5 249.17"/><rect class="cls-7" x="314.9" y="231.48" width="14.63" height="14.63" transform="translate(-74.48 297.78) rotate(-45)"/><rect class="cls-8" x="317.22" y="233.8" width="9.99" height="9.99" transform="translate(-74.48 297.78) rotate(-45)"/><polygon class="cls-9" points="322.21 233.7 328.29 239.78 329.27 238.79 322.21 231.73 315.15 238.79 316.13 239.78 322.21 233.7"/><polygon class="cls-7" points="342.9 249.17 363.59 249.17 353.25 238.83 342.9 249.17"/><polygon class="cls-8" points="346.19 249.17 360.31 249.17 353.25 242.11 346.19 249.17"/><polygon class="cls-9" points="346.19 249.17 348.16 249.17 353.25 244.08 358.34 249.17 360.31 249.17 353.25 242.11 346.19 249.17"/><rect class="cls-7" x="335.59" y="231.48" width="14.63" height="14.63" transform="translate(-68.42 312.39) rotate(-45)"/><rect class="cls-8" x="337.91" y="233.8" width="9.99" height="9.99" transform="translate(-68.42 312.41) rotate(-45)"/><polygon class="cls-9" points="342.9 233.7 348.98 239.78 349.96 238.79 342.9 231.73 335.84 238.79 336.83 239.78 342.9 233.7"/><polygon class="cls-7" points="373.91 238.83 363.57 249.17 373.91 249.17 373.91 238.83"/><polygon class="cls-8" points="373.91 242.11 366.85 249.17 373.91 249.17 373.91 242.11"/><polygon class="cls-9" points="366.85 249.17 368.82 249.17 373.91 244.08 373.91 242.11 366.85 249.17"/><rect class="cls-7" x="356.28" y="231.48" width="14.63" height="14.63" transform="translate(-62.36 327.04) rotate(-45)"/><rect class="cls-8" x="358.6" y="233.8" width="9.99" height="9.99" transform="translate(-62.36 327.04) rotate(-45)"/><polygon class="cls-9" points="363.59 233.7 369.67 239.78 370.65 238.79 363.59 231.73 356.53 238.79 357.52 239.78 363.59 233.7"/></g><path class="cls-10" d="M268.62,15.08a1.86,1.86,0,1,1-1.86-1.86,1.85,1.85,0,0,1,1.86,1.86"/><path class="cls-2" d="M412.56,133.88a3.12,3.12,0,1,1-3.12-3.11,3.12,3.12,0,0,1,3.12,3.11"/><path class="cls-2" d="M17.25,205a5.52,5.52,0,1,1-5.52-5.53A5.52,5.52,0,0,1,17.25,205"/><path class="cls-2" d="M216.79,274.84a5.68,5.68,0,1,1-5.68-5.69,5.68,5.68,0,0,1,5.68,5.69"/><path class="cls-2" d="M237.1,263.2a2.7,2.7,0,1,1-2.69-2.69,2.69,2.69,0,0,1,2.69,2.69"/><path class="cls-2" d="M526.58,225.3a3.58,3.58,0,1,1-3.57-3.57,3.57,3.57,0,0,1,3.57,3.57"/><path class="cls-2" d="M513.29,139.14a3.08,3.08,0,1,1-3.07-3.08,3.08,3.08,0,0,1,3.07,3.08"/><path class="cls-11" d="M169.85,298.09c-22.23,3-48.95-13.55-48.95-13.55S115.14,312,87.12,315.75c-23.6,3.19-35.56-9.62-37.57-24.54-2.26-16.76,7.87-35.95,28-38.66,14.77-2,29,3.54,29,3.54l6.53-18.25s-6.61,8.49-20.16,10.32C69.75,251.27,59,236.28,56.85,220c-4.6-34.11,21.23-63.33,21.23-63.33s-15.41-7.38-26.52-5.88c-5.64.76-10.41,4.5-9.44,11.66.74,5.48,5.76,10.54,13.37,9.52,1,7.3-4.29,21-23.33,23.6-17,2.3-29.91-12.55-31.9-27.33-2.38-17.66,11.41-40.76,38.67-44.43,18-2.42,32.86,6.89,51.29,20.53,0,0,13.52-13.6,33.31-16.27,15.38-2.07,29.41,7.67,30.95,19.09,1.51,11.26-7.59,24.27-25.55,26.69-14.93,2-34.67-9.9-34.67-9.9S74,184.18,77.08,206.72c1.19,8.83,8.69,19.61,21.63,17.86,12-1.62,22.86-14.4,22.86-14.4,2.16-8.19,10.21-15.17,14.17-15.7,3.65-.5,6.7,1.42,7.15,4.77.86,6.39-10,18.56-10,18.56-4.14,14.2-6.59,44.3-6.59,44.3s28.56,11.81,45.47,9.53c9.13-1.23,15.65-3.5,21.05-10.59A11.41,11.41,0,0,1,197.1,269c1.43,10.66-6.84,26.35-27.25,29.09m-70.1-24.35s-7.8-6.08-16.17-4.95c-6.4.86-9.19,5.43-8.62,9.69s4.83,8.19,12.14,7.2c8.68-1.17,12.65-11.94,12.65-11.94m6-119.72s8.14,4,11.49,3.56c4.11-.55,6.27-4.1,5.9-6.84-.27-2-1.71-3.49-4.76-3.08-4.41.6-12.63,6.36-12.63,6.36"/><path class="cls-11" d="M133.84,252.87c-2.45-18.12,19-55.58,15.92-78.58-.64-4.72-2.45-9-5.8-11.93,0,0,3.83-5,8.7-5.67,8.83-1.19,12.62,2.8,13.57,9.8,2.52,18.73-16.46,58.5-15,69,.25,1.83,1.16,2.8,3,2.55,4.42-.6,8.22-11.5,8.22-11.5l6.85-.92s-7.62,35.45-22.39,37.44c-8.23,1.11-12.23-4.4-13-10.19"/><path class="cls-11" d="M193.24,245l-.23-4c-2.89,8.45-11.15,17.32-18.31,18.28-6.7.91-12-2.87-13.41-13.23C159,229.32,167.53,191.12,191,188c11-1.47,13.6,5.46,13.6,5.46,3.21-7.26,4.06-7.84,6.5-8.16,2.89-.4,8,.93,8.52,4.58l0,.94c-3,5.36-12.69,27.75-11.54,36.28.31,2.28,1.56,3.51,3.54,3.24,3.33-.6,5.59-6.8,7.3-11.37l6.86-.92s-10.22,35.79-23.32,37.56c-4.56.61-8.25-3.7-9.17-10.55M199,208l.1-2.65c-.43-3.19-2.63-8-7.5-7.36-6.85.93-13.25,19-11.9,29,.6,4.41,2.68,7.23,6.64,6.7C193.14,232.79,199,208,199,208"/><path class="cls-11" d="M214.52,236.11a24.8,24.8,0,0,1,4.22-17,174.48,174.48,0,0,0,7.43-19.61c4-12.64,8.81-17.47,17.49-18.64,13.1-1.76,17.09,4.83,17.76,9.86.48,3.5-.18,6.69-4.75,7.31-6.7.9-4.28-7.64-8.85-7l-.46.06c-1.82.25-4.61,3.73-4.32,5.86,1,7.46,14.32,15.43,15.43,23.65,5-2.22,6.24-7.81,6.24-7.81l6.85-.93s-5.51,22.45-13.42,23.52c-3.54,10.55-12,14.33-21,15.54-12.64,1.7-21.36-5.49-22.61-14.78m16.08-30.23-2.11,8.5,1.65-.38c2.44-.33,5.74,0,7.47,1.32-4.08-6.11-5.18-7.36-7-9.44m6.3,21.48c-1.45-2.75-3.46-3.88-5.14-3.65a2.18,2.18,0,0,0-1.8,2.72,3.34,3.34,0,0,0,3.95,2.88,5.71,5.71,0,0,0,3-1.95"/><path class="cls-11" d="M264.22,226.47c-2.36-17.52,7.32-42.39,26.07-50.49l1.35-.34,1.72.08a12.79,12.79,0,0,1,5.42-2.28c10.66-1.44,15.33,4.44,16.5,13.12,1.72,12.79-3,25.06-3,25.21l.44-.22c4.11-.55,5.39-6,5.39-6l6.85-.93c-3.28,13.62-8.33,19.88-16.4,21l-1.52.21c-4.43,8.5-11.78,17.24-22.14,18.64-12.48,1.68-19.18-6.56-20.72-18m32.39-5.92c-6.6-4.07-10.28-11.79-11.3-19.41a25.36,25.36,0,0,1-.16-6.95,34.82,34.82,0,0,0-3.5,18.92c.8,5.94,3.85,10.18,10.1,9.34a9.73,9.73,0,0,0,4.86-1.9m8.81-26.61c-.69-5.18-2.76-7.85-5.65-7.46-5,.68-7.47,6.74-6.65,12.84.7,5.17,3.93,9.54,9.8,11.7a33.92,33.92,0,0,0,2.5-17.08"/><path class="cls-11" d="M344.52,222.93a28.45,28.45,0,0,1-.17-5.87s-5.66,20.15-17.23,21.7c-8.07,1.09-11.3-5.6-12.22-12.46-1.81-13.4,9.76-33.4,9.49-53.83,0,0,.89-2.6,5.3-3.2,7.92-1.07,9.24,8.68,9.28,9,1.08,8.07-8.27,26.08-7.37,32.78.29,2.13,1.35,3.07,3.63,2.77,16-2.16,12.74-47,24.31-48.55,4.72-.64,6.65,2.2,7.17,6,.84,6.24-2.28,15.35-2.28,15.35-2.58,2.67-8.1,13.49-7.28,19.58.37,2.74,2.16,4.52,6.12,4,4.26-.57,7.26-11.67,7.26-11.67l6.85-.93s-10.06,35.78-19.65,37.07-12.45-6.07-13.21-11.71"/><path class="cls-11" d="M382.5,220.61c-2-14.77,10.23-34.56,9.33-41.26-.48-3.5-1.25-4.64-6-5.24l-8.45,23.62-6.87.77,8.62-26.9s-3.21-.81-3.86-5.68c-.91-6.7,3.48-16.75,13.37-18.08,5.79-.78,9.23,1.7,9.43,3.22s-3.22,3.69-2.71,7.5c.21,1.52,3.36,4.2,7,3.71,2.9-.39,5.54.8,6.11,5.06.7,5.18-9.05,26-7.94,34.25.29,2.13,1.23,3.4,2.75,3.2,5.49-.74,8.33-11.82,8.33-11.82l6.86-.93s-5.8,35.2-23.31,37.56c-7.77,1-12.09-4.57-12.69-9"/><path class="cls-11" d="M442.42,210.83l-.15-3.39c-2.89,8.45-11.15,17.31-18.31,18.28-6.54.88-12-2.73-13.41-13.24-2.25-16.75,6.24-54.94,29.84-58.12,10.81-1.46,13.45,5.47,13.45,5.47,3.64-8.71,3.5-16.6,2.46-24.36a48.65,48.65,0,0,0-5.59-16.15,25.39,25.39,0,0,1,9.29-3.57c5.17-.7,10.85,1.17,12.25,11.52,3.34,24.82-15.49,54.18-13.89,66.06.33,2.44,1.58,3.66,4,3.33,4.72-.63,8.05-11.62,8.05-11.62l6.85-.92s-7.32,35.4-22.4,37.43c-4.72.64-11.46-3.41-12.45-10.72m5.79-36.44-.1-1.85c-.43-3.2-1.81-8.9-6.53-8.27-7,.95-13.81,19.54-12.45,29.59.55,4.11,2.62,6.78,6.42,6.26,6.85-.92,12.66-25.73,12.66-25.73"/><path class="cls-11" d="M470.25,197.62c-2.67-19.8,9-48.5,29.07-51.21,8.68-1.16,12.64,4,13.52,10.59,1.37,10.2-5.93,27.31-21.47,29.4-3.65.49-5.18-1.63-5.18-1.63s-1.07,1.23-.64,4.43c.49,3.65,2.49,7,11.62,5.72,11.88-1.6,15.88-15.63,15.88-15.63l7.16-1c-3.2,14.23-10.82,35.88-28.49,38.26-13.09,1.76-19.87-7.09-21.47-19m33.14-38.26c-.29-2.14-1.73-3.65-3.86-3.36-2.59.35-4.7,3.11-8.54,10.3l.8.2a19,19,0,0,0,4.83.12c6.09-.82,7.1-4.83,6.77-7.26"/></svg>