<svg id="Camada_1" data-name="Camada 1" xmlns="http://www.w3.org/2000/svg" viewBox="0 0 389.56 241.97"><path d="M200,80H157.77a1.5,1.5,0,0,1-1.5-1.5v-5a1.5,1.5,0,0,1,1.5-1.5h41l.18,0h1.06a17.48,17.48,0,0,0,17.46-17.46h0v-.61A17.48,17.48,0,0,0,200,37.05H177.76V63.32a1.5,1.5,0,0,1-1.5,1.5h-5a1.5,1.5,0,0,1-1.5-1.5V30.55a1.5,1.5,0,0,1,1.5-1.5H200A25.47,25.47,0,0,1,225.5,54.52h0A25.47,25.47,0,0,1,200.11,80Zm45-17.56H231.51a1.5,1.5,0,0,1-1.5-1.5v-5a1.5,1.5,0,0,1,1.5-1.5h20.14a1.5,1.5,0,0,1,1.5,1.5v0c0,.36,0,.74,0,1.16,0,.59,0,1,0,1.29a58.4,58.4,0,0,1-58.43,58.42c-1.3,0-2.61,0-3.94-.13s-2.6-.22-3.91-.4a1.5,1.5,0,0,1-1.3-1.48h0v-5a1.5,1.5,0,0,1,1.5-1.5,1.53,1.53,0,0,1,.3,0c1.19.17,2.4.31,3.62.4s2.46.13,3.73.13a50.39,50.39,0,0,0,50.27-46.42ZM194.78,0A58.48,58.48,0,0,1,250.6,41.12a1.5,1.5,0,0,1-1,1.87,1.72,1.72,0,0,1-.44.06h-5.26A1.5,1.5,0,0,1,242.47,42a49.9,49.9,0,0,0-4.9-10.26,50.63,50.63,0,0,0-23.5-19.91,50.44,50.44,0,0,0-44.31,90.39V89.54a1.5,1.5,0,0,1,1.5-1.5h5a1.5,1.5,0,0,1,1.5,1.5v22.73a1.5,1.5,0,0,1-1.5,1.5,1.42,1.42,0,0,1-.55-.11A57.57,57.57,0,0,1,163.84,108,58.42,58.42,0,0,1,194.78,0Z"/><path d="M244.64,242c4.12,0,7.25-2.33,7.25-5.94,0-3.2-2.5-4.76-5.72-6.17-2.47-1.06-4.34-1.63-4.34-3.22,0-1.43,1.48-2.59,3.35-2.59a3.79,3.79,0,0,1,3.5,2.14l2.38-1.64c-.84-2.23-3-3.63-5.91-3.63-3.65,0-6.55,2.32-6.55,5.65s2.66,4.43,5,5.49,5,2.15,5,4c0,1.55-1.72,2.65-4,2.65a5.1,5.1,0,0,1-4.55-2.5l-2.53,1.81c1.16,2.35,3.7,3.92,7,3.92m-15.82-17.54v-3.14H216.69v20.35h12.13v-3.19h-8.93v-5.63h7.7v-3.18h-7.7v-5.21Zm-32.21,14.31a7.3,7.3,0,1,1,7.31-7.28A7.29,7.29,0,0,1,196.61,238.74Zm0,3.23a10.53,10.53,0,1,0-10.51-10.48A10.54,10.54,0,0,0,196.61,242Zm-23.28-20.69v8.59h-8.79v-8.59h-3.19v20.36h3.19V233h8.79v8.6h3.2V221.28ZM144.72,242c4.12,0,7.25-2.33,7.25-5.94,0-3.2-2.5-4.76-5.71-6.17-2.47-1.06-4.35-1.63-4.35-3.22,0-1.43,1.48-2.59,3.35-2.59a3.79,3.79,0,0,1,3.5,2.14l2.38-1.64c-.84-2.23-3-3.63-5.91-3.63-3.65,0-6.55,2.32-6.55,5.65s2.66,4.43,5,5.49,5,2.15,5,4c0,1.55-1.72,2.65-4,2.65a5.1,5.1,0,0,1-4.55-2.5l-2.53,1.81C138.83,240.4,141.38,242,144.72,242Z"/><path d="M327.91,201.91h10.91L308.59,136.3H308l-30.22,65.61h10.92l4.39-9.8h26.38l-3.9-8.65H297l11.33-25.11,11.29,25.11h0l3.9,8.65h0l2.21,4.94Zm-81.36-64.29H228.26v50.56h10V147.63h8.21c14.09,0,22.94,8.56,22.94,22.19s-8.8,22.05-22.82,22.05H228.26v10h18.29c20.4,0,33.11-12.31,33.11-32C279.66,149.94,267,137.58,246.55,137.62ZM210.2,201.91h10.92L190.9,136.3h-.6l-30.23,65.61H171l4.38-9.8h26.25l-3.9-8.65H179.29l11.32-25.11,11.3,25.11h-.15l3.9,8.65h.15Zm-82.64-9.47A22.83,22.83,0,0,1,108,169.82a23.19,23.19,0,0,1,22.84-23.12c6.11,0,12.9,3.12,17.92,8.06l5.62-8.37c-6-5.92-15.32-9.83-23.42-9.87a33.21,33.21,0,0,0-3.44,66.23Zm23.23-12.74c-1.72,7.89-9.3,13.08-19,13.08h-.56V203h.13c14.28,0,26.47-8.8,29.72-23.26Zm10.86-12.9H131.23V176H161.7a36.28,36.28,0,0,0,.24-4.22A47.19,47.19,0,0,0,161.65,166.8ZM52.11,177.74v24.17H90.39v-10H62.21V177.74Zm0-13.72v10H86.53V164H52.11ZM90.39,147.6v-9.94H52.11v22.69h10.1V147.6Zm-80.29,32H21.52c12.45,0,22.63-9.29,22.63-20.74,0-11.68-10.18-21.22-22.63-21.22H0V166H10.1v-18.3H21.52c6.9,0,12.53,5,12.53,11.12s-5.63,10.93-12.53,10.89l-8.73,0H0v10ZM0,201.91H10.1V183.3H0Z"/><path d="M358.89,155.39a2.62,2.62,0,0,1,0-.28c0-4.39,4.54-7.93,10.24-7.93a11.58,11.58,0,0,1,10.71,6.54l7.25-5c-2.55-6.82-9.18-11.1-18-11.1-9.82,0-17.84,5.48-19.64,13.73Zm30.67,27c-.7-8.84-8.06-13.33-17.4-17.42l-2-.85,0,.08-21.09-9c.17,9.51,8.19,13.25,15.39,16.45,1.47.64,3,1.28,4.44,2l0,0Zm-22.1,19.55c11.61,0,20.64-6,22-15.61l-9.94-4.23a5.79,5.79,0,0,1,.32,1.9c0,4.74-5.27,8.09-12.25,8.09-6,0-11.14-2.77-13.92-7.63L346,189.94C349.49,197.12,357.26,201.91,367.46,201.91Z"/><path d="M334.17,144.59v-7.84H342v7.84a13.87,13.87,0,0,1-1.54,7,10,10,0,0,1-4.89,4.14l-1.89-3a6.55,6.55,0,0,0,3.22-2.82,11.9,11.9,0,0,0,1.16-5.35Z"/></svg>