<svg width="42" height="48" viewBox="0 0 42 48" fill="none" xmlns="http://www.w3.org/2000/svg">
<path d="M12.3108 25.699L19.4662 31.4696M1.46191 46.473L15.8885 28.5845M2.77998 46.1231L28.3644 39.3342C28.7536 39.231 29.0429 38.9043 29.0984 38.5055L31.391 22.0282C31.4394 21.6803 31.3017 21.3325 31.0283 21.112L19.9841 12.2052C19.7107 11.9847 19.3416 11.9238 19.0118 12.0448L3.39417 17.7759C3.01615 17.9146 2.75821 18.2665 2.73973 18.6688L1.52456 45.1106C1.49354 45.7856 2.12693 46.2964 2.77998 46.1231ZM40.496 15.6769L32.0757 21.0784C31.7134 21.3108 31.2431 21.2853 30.908 21.0151L20.1044 12.3023C19.7694 12.0321 19.6448 11.5778 19.7952 11.1745L23.2905 1.80116C23.5289 1.16162 24.3239 0.943661 24.8552 1.37214L40.5838 14.0567C41.1151 14.4852 41.0705 15.3083 40.496 15.6769Z" stroke="black" stroke-width="2"/>
</svg>
