<svg width="42" height="45" viewBox="0 0 42 45" fill="none" xmlns="http://www.w3.org/2000/svg">
<path d="M14.6364 10.6229L41 1V37.3636L14.6364 27.7408V10.6229Z" stroke="black" stroke-width="2" stroke-linecap="round" stroke-linejoin="round"/>
<path d="M4.91745 10.0909H14.6364V27.3636H4.91745C3.84463 27.326 2.82996 26.849 2.09598 26.0372C1.362 25.2255 0.968572 24.1453 1.00196 23.0334V14.4211C0.968572 13.3093 1.362 12.2291 2.09598 11.4173C2.82996 10.6056 3.84463 10.1286 4.91745 10.0909V10.0909Z" stroke="black" stroke-width="2" stroke-linecap="round" stroke-linejoin="round"/>
<path d="M6 28V38.727C6.00946 40.1257 6.48907 41.4637 7.33483 42.4508C8.18059 43.4378 9.32431 43.9945 10.518 44C11.7054 43.9835 12.84 43.422 13.678 42.4361C14.516 41.4502 14.9907 40.1185 15 38.727V28" stroke="black" stroke-width="2" stroke-linecap="round" stroke-linejoin="round"/>
</svg>
