<svg width="40" height="39" viewBox="0 0 40 39" fill="none" xmlns="http://www.w3.org/2000/svg">
<path d="M1.00785 18.0788C0.90388 16.961 1.84639 16 3.04653 16H6.95362C8.08384 16 9 16.8565 9 17.913V36.087C9 37.1435 8.08384 38 6.95362 38H4.73701C3.67555 38 2.79028 37.2413 2.69833 36.2527L1.00785 18.0788Z" stroke="black" stroke-width="2" stroke-linecap="round" stroke-linejoin="round"/>
<path d="M14 16.9436C14 16.1299 14.4926 15.4016 15.2096 15.0546C16.7732 14.298 19.4375 12.7755 20.6393 10.7179C22.1883 8.06593 22.4804 3.27448 22.5279 2.17697C22.5346 2.02333 22.5303 1.86951 22.5509 1.71718C22.8076 -0.183552 26.3817 2.0369 27.7529 4.38464C28.4971 5.6588 28.5925 7.33284 28.5142 8.63982C28.4305 10.0382 28.0311 11.3891 27.6393 12.7312L26.8044 15.5902H37.1019C38.3599 15.5902 39.2694 16.8241 38.9274 18.0668L33.8338 36.5819C33.6031 37.4208 32.8574 38 32.0083 38H15.8969C14.8493 38 14 37.1282 14 36.0526V16.9436Z" stroke="black" stroke-width="2" stroke-linecap="round" stroke-linejoin="round"/>
</svg>
